<svg width="1727" height="722" viewBox="0 0 1727 722" fill="none" xmlns="http://www.w3.org/2000/svg">
<g clip-path="url(#clip0_1_1506)">
<path d="M1727 696.777H0V722.056H1727V696.777Z" fill="white"/>
<path fill-rule="evenodd" clip-rule="evenodd" d="M216.415 578.588V711.891L223.884 722.037H143.255L149.386 711.891H149.58V631.261L145.565 620.165H159.921H149.775C148.436 603.888 134.642 590.871 118.17 590.871C101.699 590.871 87.7105 603.888 86.3721 620.165H76.0317H90.5816L86.5664 631.261V711.891H86.7606L94.0356 722.037H13.6006L19.5372 711.891V563.649L2.11607 550.049H1.5332V548.711H19.5372V526.691H216.437V548.711H234.635V550.049H233.685L216.458 563.649V578.588H216.415Z" fill="white"/>
<path fill-rule="evenodd" clip-rule="evenodd" d="M221.987 607.318V631.82H223.325V722.034H453.728V631.82H456.211V604.447H452.951V399.905H457.549V394.163H448.353V385.55H445.093V382.873H444.144L440.495 376.353L436.674 369.445L433.026 376.353L429.378 382.873H428.428V385.55H374.027V394.163H364.637V399.905H369.818V493.185H347.216L343.567 465.79L342.812 458.515V419.442H348.943V414.65H342.812V409.469H337.631V414.65H331.5V419.442H337.631V457.566L336.487 465.79L332.838 493.185H307.365V399.905H311.963V394.163H302.767V385.55H249.532V382.873H248.582L244.934 376.353L241.286 369.445L237.465 376.353L234.011 382.873H232.867V385.55H228.463V394.163H219.072V399.905H224.232V604.447H221.943V607.318H221.987ZM307.408 501.798H333.076V517.881L331.543 520.364L322.735 534.158H307.408V501.777V501.798ZM347.237 501.798H369.839V534.18H357.578L348.964 520.385L347.237 517.903V501.82V501.798ZM311.424 572.281C312.179 558.487 322.908 547.585 336.508 546.614C322.908 547.564 312.179 558.681 311.424 572.281ZM340.739 546.614C346.482 547.003 351.663 549.291 355.872 552.745C351.663 549.312 346.482 547.003 340.739 546.614ZM439.178 536.079H383.634V493.94H439.178V536.079ZM419.253 500.654C421.174 500.654 422.901 501.798 422.901 503.137V531.675H415.626V503.137C415.626 501.798 417.159 500.654 419.275 500.654H419.253ZM404.897 500.654C406.819 500.654 408.546 501.798 408.546 503.137V531.675H401.271V503.137C401.271 501.798 402.803 500.654 404.919 500.654H404.897ZM427.5 550.068H434.969V542.599H427.5V550.068ZM388.232 550.068H395.895V542.599H388.232V550.068ZM273.689 500.654C275.61 500.654 277.337 501.798 277.337 503.137V531.675H270.062V503.137C270.062 501.798 271.595 500.654 273.71 500.654H273.689ZM259.333 500.654C261.254 500.654 262.787 501.798 262.787 503.137V531.675H255.706V503.137C255.706 501.798 257.239 500.654 259.355 500.654H259.333ZM281.935 550.068H289.404V542.599H281.935V550.068ZM242.667 550.068H250.137V542.599H242.667V550.068ZM439.74 716.486H434.559V665.928C434.559 650.407 411.762 637.778 411.762 637.778C411.762 637.778 388.966 650.428 388.966 665.928V716.486H381.497V631.82H439.718V716.486H439.74ZM367.529 716.486H361.593V665.928C361.593 650.407 338.797 637.778 338.797 637.778C338.797 637.778 316 650.428 316 665.928V716.486H309.481V631.82H367.508V716.486H367.529ZM295.341 716.486H288.821V665.928C288.821 650.407 266.025 637.778 266.025 637.778C266.025 637.778 243.229 650.428 243.229 665.928V716.486H237.486V631.82H295.319V716.486H295.341Z" fill="white"/>
<path fill-rule="evenodd" clip-rule="evenodd" d="M1182.67 708.458H1186.49L1157.57 652.525C1142.43 637.975 1121.75 629.167 1099.15 629.167C1078.47 629.167 1059.69 636.637 1045.14 648.898L1014.31 708.458H1019.86V722.058H947.088V708.458H956.673L1016.62 592.598V575.177H1029.47L1050.73 514.257V512.919H1051.12L1057.05 495.67H1054.77V479.588H1061.48V476.522H1051.51V459.08H1066.64C1077.93 370.592 1083.31 218.53 1085.03 169.872H1084.64V166.051H1085.23L1085.42 156.66H1082.74V140.966H1089.65V121.624H1097.68V94.2292H1100.36V69.1445H1103.42V94.2292H1106.3V121.624H1114.15V140.966H1121.23V156.66H1118.36L1118.75 166.051H1119.14V169.872H1118.95C1119.9 197.266 1121.82 257.776 1125.66 321.373L1125.85 321.956L1125.66 322.15C1127.95 360.641 1130.82 399.908 1134.27 433.628C1135.22 442.824 1136.37 451.049 1137.14 459.101H1152.47V476.544H1142.52V479.609H1149.04V495.692H1147.51L1153.44 512.94L1175.07 575.199H1181.77V591.476L1183.1 590.893L1244 708.48H1255.49V722.08H1182.72V708.48L1182.67 708.458ZM1034.82 571.119L1054.16 559.828L1042.85 548.905L1034.8 571.119H1034.82ZM1045.74 539.903L1062.97 528.613L1053.21 518.834L1045.74 539.903ZM1055.89 511.192L1068.54 503.14L1060.88 496.642L1055.89 511.192ZM1143.23 495.67H1142.65L1135.37 502.557L1148.22 510.026L1143.23 495.67ZM1151.46 519.028L1142.45 528.224L1157.98 537.982L1151.46 519.028ZM1161.6 548.15L1149.34 559.828L1169.83 571.702L1161.58 548.15H1161.6ZM1099.75 156.66L1095.16 160.481L1090.56 156.66H1099.75ZM1093.82 161.841L1088.44 166.051L1088.83 157.437L1093.82 161.841ZM1090.95 166.051L1094.77 162.791L1098.22 166.051H1090.95ZM1096.3 161.647L1100.12 158.582V165.101L1096.3 161.647ZM1100.12 170.26L1094.38 176.197L1088.44 169.872H1100.12V170.26ZM1092.85 177.73L1088.05 182.911L1088.25 172.57L1092.85 177.73ZM1088.05 185.393L1094.19 179.068L1099.73 185.393H1088.05ZM1095.52 177.535L1100.12 172.743V182.5L1095.52 177.514V177.535ZM1100.12 189.214L1093.99 195.345L1088.44 189.02H1100.12V189.214ZM1092.29 196.683L1087.3 202.037L1087.67 191.114L1092.26 196.662L1092.29 196.683ZM1087.1 204.736L1093.82 198.216L1099.37 204.93H1087.1V204.736ZM1095.16 196.683L1100.14 191.697V202.426L1095.16 196.683ZM1100.12 208.945L1093.8 215.076L1087.86 208.557H1100.12V208.945ZM1092.09 216.609L1086.54 221.962V220.818L1086.93 210.866L1092.11 216.609H1092.09ZM1086.91 224.078L1093.43 217.947L1098.98 224.078H1086.91ZM1094.77 216.609L1100.12 211.622V222.351L1094.77 216.609ZM1100.12 229.065L1093.8 234.613L1086.89 227.726H1099.71L1100.1 227.921V229.065H1100.12ZM1092.09 235.951L1085.77 241.305L1086.35 230.015L1092.09 235.951ZM1085.96 243.615L1093.43 237.29L1099.56 243.615H1085.96ZM1094.77 235.951L1100.12 231.547V241.132L1094.77 235.951ZM1103.77 228.482L1104.33 227.726H1117.15L1110.66 234.613L1103.77 228.676V228.482ZM1100.12 247.457L1092.85 253.588L1086.52 247.263H1100.12V247.457ZM1091.31 254.927L1084.99 260.28L1085.38 248.99L1091.31 254.927ZM1084.62 262.763L1092.67 256.243L1099.19 263.13H1084.62V262.741V262.763ZM1094.19 254.927L1099.73 249.94V260.863L1094.19 254.927ZM1099.56 266.994L1092.29 273.319L1085.77 266.627H1099.56V267.016V266.994ZM1090.75 274.636L1084.04 280.572L1084.43 268.311L1090.75 274.636ZM1084.62 282.299L1092.09 275.974L1098.42 282.299H1084.62ZM1093.82 274.636L1099.56 269.477V275.607L1099.37 278.673V280.594L1093.82 274.658V274.636ZM1085.01 266.605L1084.43 268.332L1084.62 266.605H1085.01ZM1098.78 285.948L1091.9 292.079L1085.77 285.948H1098.78ZM1090.17 293.611L1082.89 300.131L1083.48 287.113L1090.17 293.633V293.611ZM1084.23 301.836L1091.7 294.95L1098.78 301.836H1084.23ZM1093.43 293.417L1099.37 288.236L1099.17 291.496V296.482L1098.98 298.792L1093.43 293.439V293.417ZM1097.64 305.484L1090.95 311.032L1085.4 305.484H1097.66H1097.64ZM1089.03 312.954L1081.75 318.89L1082.72 306.24L1089.05 312.954H1089.03ZM1082.89 321.179L1090.75 314.465L1097.08 321.179H1082.89ZM1092.85 312.954L1098.78 307.578V310.083L1098.39 318.696L1092.85 312.954ZM1098.22 324.827L1090.95 330.958L1085.2 324.827H1098.22ZM1089.03 332.49L1080.58 339.765L1081.56 324.827L1089.03 332.469V332.49ZM1083.48 340.521L1090.75 334.39L1096.88 340.521H1083.48ZM1092.85 332.49L1098.2 328.087V328.864L1098.01 329.814V334.8L1097.81 337.866L1092.83 332.512L1092.85 332.49ZM1096.49 344.169L1089.61 349.717L1084.25 344.169H1096.52H1096.49ZM1087.67 351.638L1079.25 358.719L1080.39 344.169L1087.67 351.638ZM1081.75 359.863L1089.41 353.344L1095.93 359.863H1081.75ZM1091.51 351.638L1097.64 346.285L1097.44 348.4V349.933L1097.06 357.208L1091.51 351.66V351.638ZM1095.16 363.512L1087.88 369.448L1082.14 363.512H1095.16ZM1085.77 370.981L1077.91 377.306L1079.05 363.706L1085.77 370.981ZM1079.44 379.227L1087.67 372.902L1093.41 379.227H1079.42H1079.44ZM1089.41 371.175L1096.69 365.627C1096.49 369.642 1096.3 374.046 1095.91 378.083L1089.39 371.197L1089.41 371.175ZM1094.57 383.048L1087.3 388.596L1081.75 383.048H1094.6H1094.57ZM1085.38 390.323L1076.38 397.404C1076.76 392.806 1077.13 387.819 1077.52 383.048H1078.28L1085.36 390.323H1085.38ZM1079.05 398.57L1086.91 392.05L1093.04 398.57H1079.05ZM1089.03 390.518L1095.52 385.337C1095.33 389.179 1095.13 393 1094.77 396.648L1089.03 390.518ZM1091.51 402.196L1085.18 407.377L1080.39 402.196H1091.51ZM1083.09 409.104L1074.67 415.624C1075.25 411.414 1075.62 406.816 1075.81 402.218H1076.76L1083.09 409.104ZM1075.81 418.106L1084.62 410.831L1091.72 418.106H1075.81ZM1086.72 409.277L1094.38 403.168C1093.99 407.377 1093.82 411.976 1093.24 415.991L1086.72 409.277ZM1091.9 421.733L1083.48 428.253L1077.54 421.733H1091.9ZM1081.56 429.785L1073.31 436.672H1072.73C1073.12 431.879 1073.5 426.914 1074.07 421.927L1081.53 429.785H1081.56ZM1077.15 436.672L1083.28 431.707L1087.88 436.672H1077.15ZM1085.38 430.174L1092.65 424.432C1092.07 428.468 1091.7 432.678 1091.31 436.305L1085.38 430.174ZM1090.36 440.32L1080.97 447.984L1073.89 440.32H1090.36ZM1079.05 449.516L1070.44 456.424C1070.83 451.826 1071.58 447.034 1071.97 442.241L1079.05 449.516ZM1070.83 459.08L1080.58 451.416L1087.1 458.302V458.497L1086.91 459.058H1070.83V459.08ZM1082.7 449.711L1090.17 443.774C1089.41 447.984 1088.83 452.02 1088.05 455.453L1082.7 449.711ZM1104.55 156.66L1109.32 160.481L1113.72 156.66H1104.53H1104.55ZM1110.68 161.841L1115.28 165.49L1115.08 157.826L1110.68 161.841ZM1113.16 166.051L1109.51 162.791L1105.89 166.051H1113.16ZM1107.98 161.647L1103.77 157.999V165.468L1107.98 161.647ZM1103.77 169.872L1110.07 176.197L1115.45 170.066V169.872H1103.77ZM1111.43 177.73L1115.64 182.328L1115.45 173.326L1111.43 177.73ZM1115.84 185.005L1110.29 179.068L1104.35 185.393H1115.84V185.005ZM1108.76 177.535L1103.79 172.354V183.083L1108.76 177.535ZM1104.16 189.041L1110.48 195.367L1115.64 189.041H1104.16ZM1111.82 196.683L1116.42 201.282L1116.23 191.697L1111.82 196.683ZM1116.59 203.98L1110.66 198.238L1105.11 204.951H1116.59V203.98ZM1109.12 196.683L1103.77 191.33V203.397L1109.12 196.683ZM1103.77 208.578L1110.66 215.098L1116.59 208.578H1103.77ZM1112.21 216.609L1117.18 221.207L1116.79 211.428L1112.19 216.609H1112.21ZM1117.18 224.078L1110.87 217.947L1105.5 224.078H1117.18ZM1109.32 216.609L1103.77 211.255V222.934L1109.32 216.609ZM1112.21 235.951L1117.95 240.938L1117.56 230.403L1112.21 235.951ZM1118.15 243.42L1110.87 237.29L1104.55 243.615H1118.15V243.42ZM1109.32 235.951L1103.77 231.159V241.499L1109.32 235.951ZM1104.16 247.263L1111.63 253.588L1117.95 247.263H1104.16ZM1113.16 254.927L1118.9 259.913L1118.32 249.767L1113.14 254.948L1113.16 254.927ZM1118.9 262.396L1111.82 256.265L1105.3 263.151H1119.1L1118.9 262.396ZM1110.29 254.927L1103.96 249.551V261.23L1110.29 254.905V254.927ZM1104.16 266.605L1112.02 273.298L1118.71 266.605H1104.16ZM1113.72 274.636L1119.85 280.011L1119.27 268.894L1113.72 274.636ZM1119.85 282.299L1112.19 275.974L1105.86 282.299H1119.85ZM1110.68 274.636L1104.16 268.894V275.586L1104.35 278.651V280.961L1110.68 274.636ZM1105.69 285.948L1112.21 292.079L1118.34 285.948H1105.69ZM1114.11 293.611L1120.82 299.548L1120.24 287.675L1114.11 293.611ZM1120.24 301.836L1112.77 294.95L1105.69 301.836H1120.24ZM1110.85 293.417L1104.33 287.675L1104.53 291.496V296.482L1104.72 299.354L1110.85 293.417ZM1106.64 305.484L1113.35 311.032L1118.9 305.484H1106.64ZM1115.25 312.954L1121.77 318.307L1121.19 306.823L1115.25 312.954ZM1121.39 321.179L1113.72 314.465L1107.01 321.179H1121.36H1121.39ZM1111.63 312.954L1104.74 307.211L1105.13 310.083L1105.32 319.279L1111.65 312.954H1111.63ZM1106.25 324.827L1113.14 330.958L1119.27 324.827H1106.25ZM1115.25 332.49L1123.11 339.398L1122.16 325.604L1115.28 332.49H1115.25ZM1120.82 340.521L1113.74 334.39L1107.61 340.521H1120.82ZM1111.63 332.49L1105.5 327.504V328.842L1105.69 329.792V334.779L1105.89 338.405L1111.63 332.469V332.49ZM1107.98 344.169L1114.5 349.717L1120.24 344.169H1107.98ZM1116.59 351.638L1124.45 358.158L1123.67 344.558L1116.59 351.638ZM1122.72 359.863L1115.06 353.344L1108.35 359.863H1122.72ZM1112.97 351.638L1106.25 345.896L1106.45 348.379V349.912L1106.64 357.964L1112.97 351.638ZM1109.12 363.512L1116.59 369.448L1121.97 363.512H1109.12ZM1118.71 370.981L1125.62 376.918L1124.65 364.461L1118.71 370.981ZM1124.65 379.227L1116.79 372.902L1110.66 379.227H1124.62H1124.65ZM1114.69 371.175L1107.03 364.85C1107.22 369.643 1107.61 374.241 1107.81 378.644L1114.69 371.175ZM1109.71 383.048L1116.98 388.596L1122.53 383.048H1109.68H1109.71ZM1119.1 390.323L1127.52 397.037C1126.93 392.245 1126.57 387.841 1126.37 383.048H1126.18L1119.1 390.323ZM1125.42 398.57L1117.18 392.05L1111.24 398.57H1125.4H1125.42ZM1115.25 390.518L1108.17 384.775C1108.37 388.985 1108.76 393.194 1108.95 397.231L1115.28 390.518H1115.25ZM1112.97 402.196L1119.29 407.377L1124.08 402.196H1112.99H1112.97ZM1121.39 409.104L1129.05 415.235C1128.66 410.831 1128.1 406.622 1127.9 402.218H1127.71L1121.39 409.104ZM1128.66 418.106L1119.46 410.831L1112.75 418.106H1128.64H1128.66ZM1117.56 409.277L1109.34 402.391C1109.53 407.377 1110.1 412.17 1110.51 416.746L1117.59 409.277H1117.56ZM1112.58 421.733L1120.63 428.253L1126.95 421.733H1112.6H1112.58ZM1122.72 429.785L1131.14 436.672C1130.56 432.074 1130.19 427.281 1129.61 422.683L1122.72 429.764V429.785ZM1126.95 436.672L1121.21 431.707L1116.42 436.672H1126.95ZM1119.1 430.174L1111.24 423.849C1111.63 428.253 1111.99 432.656 1112.77 436.672L1119.1 430.152V430.174ZM1113.92 440.32L1123.31 447.984L1130.39 440.32H1113.92ZM1125.42 449.516L1133.28 455.841C1132.89 451.632 1132.14 447.228 1131.75 442.824L1125.42 449.538V449.516ZM1133.26 459.08L1123.67 451.416L1116.59 458.885L1116.79 459.08H1133.26ZM1121.58 449.711L1113.72 443.191C1114.3 447.984 1115.06 452.193 1115.82 455.841L1121.56 449.711H1121.58ZM1058.37 512.897H1079.83L1070.83 505.234L1058.37 512.897ZM1080.2 495.67L1070.83 501.607L1064.11 495.67H1080.2ZM1073.12 503.722L1085.57 495.67H1087.3L1085.01 512.919H1084.25L1073.14 503.722H1073.12ZM1133.09 504.478L1124.08 512.897H1147.66L1133.11 504.478H1133.09ZM1123.31 495.67L1132.89 501.218L1138.83 495.67H1123.31ZM1130.58 503.14L1117.18 495.67L1120.05 512.919L1130.58 503.14ZM1048.03 543.163H1077.71L1065.84 531.484L1048.03 543.163ZM1081.36 516.545L1065.84 526.692L1055.69 516.545H1081.36ZM1068.91 529.563L1083.84 519.999L1080.39 541.263L1068.91 529.584V529.563ZM1139.39 531.095L1127.32 543.163H1159.1L1139.39 531.095ZM1123.7 516.545L1139.41 526.325L1149.17 516.545H1123.7ZM1136.52 529.174L1120.82 519.417L1124.08 539.903L1124.28 541.436L1136.54 529.174H1136.52ZM1146.3 562.7L1133.65 575.155H1166.78L1146.3 562.7ZM1127.9 546.811L1146.1 557.734L1157.39 546.811H1127.9ZM1142.84 560.973L1125.81 550.632L1129.44 573.817L1142.84 560.994V560.973ZM1036.74 575.155H1070.27L1057.25 562.7L1036.76 575.155H1036.74ZM1075.62 546.811L1057.62 557.734L1046.13 546.811H1075.62ZM1060.68 560.973L1079.07 550.049L1075.25 574.767L1060.7 560.973H1060.68ZM1136.52 611.725V617.661C1137.86 618.244 1139.22 618.805 1140.36 619.194L1136.52 611.725ZM1134.99 617.1V608.681L1132.5 603.888V616.15L1134.99 617.1ZM1130.78 615.762V600.823L1129.24 597.758H1128.29V614.79L1130.78 615.74V615.762ZM1126.57 614.229V597.758H1124.26V613.646L1126.57 614.207V614.229ZM1122.53 613.452V597.758H1120.05V612.696L1122.53 613.452ZM1118.32 612.502V597.758H1115.82V612.135L1118.32 612.523V612.502ZM1114.3 611.725V597.736H1111.82V611.336L1114.3 611.725ZM1110.29 611.163V597.758H1107.79V610.969L1110.29 611.163ZM1106.25 610.969V597.758H1103.77V610.775L1106.25 610.969ZM1102.04 610.775V597.758H1099.56V610.775H1102.04ZM1097.83 610.775V597.758H1095.52V610.775H1097.83ZM1093.82 610.775V597.758H1091.34V610.969L1093.82 610.775ZM1089.61 611.163V597.758H1087.1V611.358L1089.61 611.163ZM1085.57 611.552V597.758H1083.09V611.746L1085.57 611.552ZM1081.56 612.308V597.758H1079.05V612.696L1081.56 612.308ZM1077.54 612.89V597.758H1075.06V613.646L1077.54 612.89ZM1073.31 614.035V597.758H1071.58L1070.83 599.096V614.79L1073.31 614.035ZM1069.1 615.179V602.334L1066.79 607.127V615.934L1069.1 615.179ZM1193.01 704.055L1202.96 691.426L1181.51 681.841L1192.99 704.055H1193.01ZM1206.61 687.195L1216.37 675.127H1179.8L1206.61 687.195ZM1220.02 678.775L1211.6 689.504L1229.8 697.362L1220.04 678.775H1220.02ZM1207.95 693.714L1196.27 708.458H1235.35L1233.62 705.004L1207.95 693.714ZM1175.03 669.385L1186.13 661.549L1167.76 655.029L1175.03 669.385ZM1190.53 658.656L1200.87 651.575H1171.38L1190.53 658.656ZM1206.42 652.331L1195.11 660.189L1213.89 666.902L1206.42 652.352V652.331ZM1190.53 663.254L1178.85 671.479H1213.13L1190.53 663.254ZM1167.73 647.927H1200.09L1178.83 640.263L1167.73 647.927ZM1163.14 646.394L1174.23 638.731L1155.67 632.039L1163.14 646.394ZM1178.85 635.493L1189.77 628.023H1157.98L1178.85 635.493ZM1194.35 629.534L1183.45 637.198L1201.82 643.912L1194.35 629.534ZM1151.85 624.569H1191.87L1188.22 617.489H1148.2L1151.82 624.569H1151.85ZM1007.42 704.443L997.279 691.426L1019.3 681.841L1007.42 704.443ZM993.631 687.195L984.067 675.127H1020.66L993.652 687.195H993.631ZM980.613 678.97L988.665 689.504L971.223 697.168L980.613 678.97ZM992.314 693.714L1004.19 708.458H965.502L967.229 704.832L992.314 693.714ZM1025.62 669.579L1014.31 661.549L1033.09 654.835L1025.62 669.579ZM1009.73 658.656L999.589 651.575H1029.08L1009.73 658.656ZM994.408 652.525L1005.33 660.189L986.938 666.902L994.408 652.525ZM1009.73 663.254L1021.61 671.479H987.133L1009.73 663.254ZM1032.73 647.927H1000.34L1021.61 640.263L1032.73 647.927ZM1186.32 613.84H1146.3L1138.05 597.758H1178.07L1186.3 613.84H1186.32ZM1037.3 646.589L1026.01 638.731L1045.16 632.039L1037.3 646.589ZM1021.61 635.493L1010.71 628.023H1042.31L1021.63 635.493H1021.61ZM1006.09 629.729L1017.01 637.198L998.812 643.717L1006.09 629.729ZM1049 624.569H1008.78L1012.43 617.489H1052.65L1049.02 624.569H1049ZM1054.36 613.84H1014.33L1022.75 597.758H1062.78L1054.36 613.84ZM1089.98 506.205H1115.06L1125.59 575.155H1079.05L1084.43 539.903L1089.98 506.205ZM1114.3 502.557H1090.36L1091.51 495.67H1113.16L1114.3 502.557ZM1065.09 616.517V610.192L1060.88 618.244C1062.21 617.467 1063.55 617.1 1065.09 616.517ZM1148.78 635.298L1146.69 631.283C1132.7 623.037 1116.61 618.46 1099.19 618.46C1083.28 618.46 1068.17 622.475 1055.13 629.556L1053.21 633.399C1066.81 625.735 1082.51 621.137 1099.17 621.137C1117.54 621.137 1134.23 626.318 1148.78 635.32V635.298Z" fill="white"/>
<path fill-rule="evenodd" clip-rule="evenodd" d="M747.143 558.68V572.28H748.87V574.784H748.287C797.118 605.633 769.745 615.196 775.487 621.327C766.096 621.133 756.727 621.133 747.143 621.327H718.41C722.058 614.613 693.713 605.806 744.271 574.784H743.689V572.28H745.416V559.457H744.271C742.156 559.457 740.256 558.119 739.479 556.003C740.429 556.975 741.595 557.342 742.933 557.342C745.804 557.342 748.287 555.053 748.287 552.161C748.287 551.578 748.092 550.822 747.898 550.434C749.042 551.383 749.625 552.722 749.625 554.082C749.625 556.003 748.675 557.709 747.143 558.68ZM651.769 633.178C652.352 632.034 647.754 630.674 656.173 625.515C664.225 630.674 659.821 632.229 660.771 633.178H651.769ZM651.38 641.986H660.577V636.999H651.38V641.986ZM653.107 640.842H654.834V637.971H653.107V640.842ZM657.317 640.842H658.85V637.971H657.317V640.842ZM655.223 640.842H656.756V637.971H655.223V640.842ZM650.236 636.438H661.915V635.488H650.236V636.438ZM650.236 634.711H661.915V633.74H650.236V634.711ZM650.236 643.519H661.915V642.763H650.236V643.519ZM650.236 644.663H661.915V643.907H650.236V644.663ZM651.186 644.857H660.771V668.604H651.186V644.857ZM660.771 670.158V690.644H651.186V670.158H660.771ZM660.771 692.177V704.827H672.061V646.217L691.015 642.375V704.827H691.771V632.056H694.253V631.279H716.467V624.565H776.221V630.113V631.257H799.212V632.034H801.133V704.806H802.277V641.403L820.67 646.584V704.806H833.126V692.156H842.516V704.806H859.57V684.319H874.897V704.806H894.434V709.965H598.729V704.806H618.848V684.319H634.369V704.806H651.229V692.156H660.814L660.771 692.177ZM633.571 588.363C632.621 586.636 640.09 584.542 626.49 576.295C613.278 584.326 620.553 586.83 619.021 588.363H633.571ZM633.959 602.719H619.215V594.666H633.959V602.719ZM631.261 601.013H628.778V596.415H631.261V601.013ZM624.374 601.013H621.892V596.415H624.374V601.013ZM627.828 601.013H625.346V596.415H627.828V601.013ZM636.248 594.299H617.099V592.205H636.248V594.299ZM636.248 591.234H617.099V589.313H636.248V591.234ZM636.248 605.223H617.099V603.301H636.248V605.223ZM636.248 607.122H617.099V605.784H636.248V607.122ZM894.434 722.054H598.729V711.714H894.434V722.054ZM634.326 607.511H618.805V646.001H634.326V607.511ZM860.153 588.363C861.297 586.636 853.634 584.542 867.428 576.295C880.64 584.326 873.365 586.83 874.897 588.363H860.153ZM874.703 602.719V594.666H876.819V592.184H857.671V594.666H859.786V602.719H857.671V607.511H859.592V646.001H874.919V607.511H876.84V602.719H874.725H874.703ZM862.636 601.013H865.118V596.415H862.636V601.013ZM869.349 601.013H872.026V596.415H869.349V601.013ZM866.09 601.013H868.594V596.415H866.09V601.013ZM857.649 591.817H876.797V589.334H857.649V591.817ZM874.897 648.506V681.642H859.57V648.506H874.897ZM720.137 704.806H772.81V635.272H720.137V704.806ZM842.149 633.178C841.566 632.034 846.164 630.674 837.745 625.515C829.499 630.674 834.097 632.229 833.147 633.178H842.149ZM842.516 641.986H833.32V636.999H842.516V641.986ZM840.616 640.842H839.084V637.971H840.616V640.842ZM836.58 640.842H835.047V637.971H836.58V640.842ZM838.501 640.842H836.968V637.971H838.501V640.842ZM843.66 636.632H831.981V635.488H843.66V636.632ZM843.66 634.711H831.981V633.74H843.66V634.711ZM843.66 643.519H831.981V642.569H843.66V643.519ZM843.66 644.857H842.516V668.604H833.126V644.857H831.981V643.907H843.66V644.857ZM833.147 670.158V690.644H842.538V670.158H833.147ZM618.826 648.506V681.642H634.348V648.506H618.826ZM685.856 684.902V699.085L676.098 699.279V686.068C676.098 683.585 680.696 679.548 680.891 679.548C681.085 679.548 685.877 682.42 685.877 684.902H685.856ZM685.856 661.134V675.123L676.098 676.267V662.278C676.098 659.602 680.696 655.565 680.891 655.565C681.085 655.37 685.877 658.242 685.877 661.113L685.856 661.134ZM807.847 684.902V699.085L817.626 699.279V686.068C817.626 683.585 812.833 679.548 812.639 679.548C812.445 679.548 807.847 682.42 807.847 684.902ZM807.847 661.134V675.123L817.626 676.267V662.278C817.626 659.602 812.833 655.565 812.639 655.565C812.445 655.37 807.847 658.242 807.847 661.113V661.134ZM779.135 630.113C780.301 627.997 771.083 625.515 787.943 615.369H787.187V614.613H787.77V611.159H787.187C786.604 611.159 785.849 610.576 785.655 610.015C785.849 610.209 786.41 610.404 786.799 610.404C787.749 610.404 788.526 609.648 788.526 608.871C788.526 608.677 788.526 608.504 788.331 608.31C788.72 608.504 788.893 608.871 788.893 609.454C788.893 610.037 788.698 610.404 788.331 610.792V614.613H788.72V615.369H787.965C804.047 625.148 795.628 628.213 797.161 630.113H779.157H779.135ZM751.352 664.2V675.123H762.47V663.811C762.47 657.292 747.337 648.484 746.56 648.484C745.783 648.484 730.671 657.292 730.671 663.811V675.123H741.595V664.2C741.595 662.278 746.193 659.602 746.581 659.602C746.776 659.602 751.374 662.278 751.374 664.2H751.352ZM751.352 688.529V699.258H741.595V688.529C741.595 686.413 746.193 683.758 746.581 683.758C746.776 683.758 751.374 686.435 751.374 688.529H751.352ZM762.47 678.966H730.671V699.258H726.073V641.036H766.874V699.258H762.47V678.966ZM700.794 666.704H704.615V673.979H700.794V666.704ZM700.794 691.983H704.615V699.258H700.794V691.983ZM788.699 691.983H792.519V699.258H788.699V691.983ZM788.699 666.704H792.519V673.979H788.699V666.704ZM697.34 635.855H700.794V641.036H697.34V635.855ZM793.102 635.855H796.751V641.036H793.102V635.855ZM787.36 635.855H790.814V641.036H787.36V635.855ZM781.424 635.855H784.877V641.036H781.424V635.855ZM709.213 635.855H712.667V641.036H709.213V635.855ZM703.277 635.855H706.731V641.036H703.277V635.855ZM783.539 678.383H788.893C787.749 678.966 786.604 679.915 786.022 680.304C784.877 681.254 783.345 683.002 783.345 684.708V700.035H798.089V684.708C798.089 682.981 796.362 681.254 795.218 680.304C794.829 679.915 793.491 678.966 792.347 678.383H798.089V676.85H783.539V678.383ZM695.44 652.327H701.96C700.816 652.909 698.7 654.636 698.139 655.003C696.995 655.953 695.268 657.68 695.268 659.407V674.734H710.012V659.407C710.012 657.68 708.285 655.953 707.141 655.003C706.558 654.421 704.658 652.888 703.32 652.327H710.034V650.794H695.484V652.327H695.44ZM695.44 678.383H700.988C699.844 678.966 698.506 679.915 698.117 680.304C696.973 681.254 695.246 683.002 695.246 684.708V700.035H709.991V684.708C709.991 682.981 708.458 681.254 707.119 680.304C706.731 679.915 705.587 678.966 704.442 678.383H709.991V676.85H695.44V678.383ZM783.15 652.327H790.037C788.698 652.909 786.583 654.442 786.194 655.003C784.856 655.953 783.323 657.68 783.323 659.407V674.734H798.067V659.407C798.067 657.68 796.34 655.953 795.196 655.003C794.613 654.615 792.519 652.888 791.375 652.327H797.506V650.794H783.15V652.327ZM705.781 608.288C706.169 608.482 706.364 608.849 706.364 609.432C706.364 610.015 706.169 610.382 705.781 610.771V614.592H706.364V615.347H704.637V614.592H705.22V611.138H704.637C704.054 611.138 703.493 610.555 703.104 609.993C703.493 610.188 703.881 610.382 704.248 610.382C705.198 610.382 705.975 609.627 705.975 608.849C705.975 608.655 705.975 608.482 705.781 608.288ZM705.392 615.369C721.475 625.148 713.25 628.213 714.589 630.113H696.585C697.923 627.997 688.533 625.515 705.392 615.369Z" fill="white"/>
<path fill-rule="evenodd" clip-rule="evenodd" d="M959.153 422.51H955.72V397.986L955.332 398.375L954.749 397.986V405.844L953.993 404.894L953.238 406.233L952.46 407.571L951.511 406.233L950.733 404.894L949.784 406.233L949.028 407.571L948.078 406.233L947.301 404.894L946.351 406.233L945.574 407.571L944.819 406.233L943.869 404.894L943.091 406.233L942.142 407.571L941.386 406.233L940.436 404.894L939.681 406.233L938.904 407.571L937.932 406.233L937.177 404.894L936.227 406.233L935.449 407.571L934.5 406.233L933.744 404.894L932.794 406.233L932.039 407.571L931.262 406.233L930.312 404.894L929.556 406.233L928.606 407.571L927.851 406.233L926.901 404.894L926.145 406.233L925.39 407.571L924.418 406.233L923.641 404.894L922.691 406.233L921.936 407.571L920.986 406.233L920.23 404.894L919.259 406.233L918.503 407.571L917.748 406.233L916.776 404.894L916.021 406.233L915.071 407.571L914.315 406.233L913.366 404.894L912.61 406.233L911.833 407.571L910.883 406.233L910.127 404.894L909.156 406.233L908.4 407.571L907.45 406.233L906.673 404.894L905.724 406.233L904.968 407.571L904.212 406.233L903.263 404.894L902.485 406.233L901.536 407.571L900.78 406.233L899.83 404.894L899.053 406.233L898.297 407.571L897.348 406.233L896.592 404.894L895.815 406.038V398.008L895.254 398.396L894.671 398.008V422.531H891.411V412.946L891.022 413.508L890.44 412.946V492.431H960.34V412.946L959.757 413.508L959.368 412.946V422.531L959.153 422.51ZM961.268 722.058H887.137V677.825H961.268V722.058ZM953.993 674.371V633.009H950.928V674.371H948.618V633.009H945.358V674.371H943.07V633.009H940.004V674.371H937.522V633.009H934.456V674.371H931.974V633.009H928.908V674.371H926.426V633.009H923.361V674.371H920.878V633.009H917.813V674.371H915.503V633.009H912.243V674.371H909.955V633.009H906.889V674.371H904.407V633.009H901.341V674.371H898.859V633.009H895.793V674.371H893.311V588.755H956.519V674.371H954.036H953.993ZM950.928 630.699H953.993V590.676H950.928V630.699ZM895.772 630.699H898.837V590.676H895.772V630.699ZM901.32 630.699H904.385V590.676H901.32V630.699ZM906.868 630.699H909.933V590.676H906.868V630.699ZM912.243 630.699H915.503V590.676H912.243V630.699ZM917.791 630.699H920.856V590.676H917.791V630.699ZM923.339 630.699H926.404V590.676H923.339V630.699ZM928.908 630.699H931.974V590.676H928.908V630.699ZM934.456 630.699H937.522V590.676H934.456V630.699ZM940.004 630.699H943.07V590.676H940.004V630.699ZM945.38 630.699H948.639V590.676H945.38V630.699ZM897.304 395.892L894.995 393.971L892.901 395.892L894.995 398.18L897.304 395.892ZM957.447 395.892L955.353 393.971L953.238 395.892L955.353 398.18L957.447 395.892ZM961.657 410.831L959.541 408.909L957.62 410.831L959.541 413.119L961.657 410.831ZM892.706 410.831L890.807 408.909L888.691 410.831L890.807 413.119L892.706 410.831ZM894.433 394.165V392.827H895.577V394.165L895.016 393.582L894.433 394.165ZM954.749 394.165V392.827H955.72V394.165L955.332 393.582L954.749 394.165ZM890.224 409.104V407.571H891.174V408.909L890.785 408.521L890.202 409.104H890.224ZM959.153 408.909V407.571H960.102V409.104L959.52 408.521L959.131 408.909H959.153ZM910.127 383.048L900.931 405.844L901.125 406.038L901.32 406.427L903.047 403.944L904.385 406.06L904.774 406.448L905.162 406.06L906.501 403.944L908.228 406.621L908.616 406.038L909.955 403.75L911.099 406.038L911.682 406.621L913.214 403.944L914.747 406.06L914.941 406.448L915.33 406.06L916.668 403.944L918.007 406.06L918.395 406.448L918.784 406.06L920.122 403.944L921.461 406.06L921.849 406.643L922.238 406.06L923.576 403.772L924.742 406.06L925.325 406.643L925.519 406.06L926.858 403.944L928.39 406.06L928.585 406.448L930.312 403.966L931.65 406.081L932.039 406.47L932.427 406.081L933.766 403.966L935.493 406.643L935.881 406.06L937.22 403.772L938.558 406.06L938.947 406.643L940.479 403.966L942.012 406.081L942.206 406.47L943.933 403.988L945.272 406.103L945.66 406.492L946.049 406.103L947.387 403.988L949.114 406.47L949.309 406.081L949.503 405.887L940.307 383.091H910.235L910.127 383.048ZM913.193 398.569L911.293 395.309L910.71 394.554L908.206 398.569L908.962 398.958L910.689 396.087L912.221 398.958L913.171 398.569H913.193ZM927.57 390.905L925.649 387.452L925.26 386.696L922.756 390.905L923.512 391.294L925.239 388.423L926.771 391.294L927.549 390.905H927.57ZM937.133 390.905L935.039 387.452L934.651 386.696L932.168 390.905L932.945 391.294L934.672 388.423L936.205 391.294L937.155 390.905H937.133ZM941.926 398.569L939.81 395.309L939.422 394.554L937.112 398.569L937.695 398.958L939.422 396.087L941.149 398.958L941.926 398.569ZM932.168 398.569L930.441 395.309L929.858 394.554L927.376 398.569L928.131 398.958L929.858 396.087L931.585 398.958L932.168 398.569ZM922.583 398.569L920.856 395.309L920.273 394.554L917.791 398.569L918.547 398.958L920.273 396.087L921.806 398.958L922.562 398.569H922.583ZM918.957 390.905L917.23 387.452L916.647 386.696L914.164 390.905L914.92 391.294L916.647 388.423L918.179 391.294L918.957 390.905ZM904.191 411.025H897.304V420.416H904.191V411.025ZM952.072 411.025H945.358V420.416H952.072V411.025ZM942.703 411.025H935.622V420.416H942.703V411.025ZM933.118 411.025H926.037V420.416H933.118V411.025ZM923.533 411.025H916.453V420.416H923.533V411.025ZM913.776 411.025H906.889V420.416H913.776V411.025ZM927.937 325.02H922.389V321.005H927.937V325.02ZM909.955 355.847L907.839 353.732L905.724 355.847L907.839 357.941L909.955 355.847ZM944.603 355.847L942.509 353.732L940.393 355.847L942.509 357.941L944.603 355.847ZM941.343 364.094L940.587 365.627L939.81 367.159H939.616L939.033 365.627L938.083 364.094L937.133 365.627L936.55 367.159L935.795 365.627L934.845 364.094L934.09 365.627L933.334 367.159L932.557 365.627L931.801 364.094L930.83 365.627L930.074 367.159L929.319 365.627L928.563 364.094L927.613 365.627L927.03 367.159H926.836L926.081 365.627L925.325 364.094L924.354 365.627L923.771 367.159H923.576L922.821 365.627L922.065 364.094L921.115 365.627L920.533 367.159H920.338L919.561 365.627L918.806 364.094L917.856 365.627L917.273 367.159H917.1L916.323 365.627L915.373 364.094L914.618 365.627L913.862 367.159L913.279 365.627L912.329 364.094L911.379 365.627L910.797 367.159H910.602L910.019 365.627L909.048 364.094L908.465 365.044V358.33L907.882 358.719L907.299 358.33V367.138V381.882H943.113V367.138V358.33L942.552 358.719L941.969 358.33V365.044L941.386 364.094H941.343ZM925.26 318.695C925.26 319.278 925.066 319.839 925.066 320.422H925.26V318.695ZM924.505 325.603C922.389 338.815 916.258 350.494 912.049 362.95V362.755L913.581 365.432L913.776 365.821L915.308 362.755L916.841 365.432L917.035 365.821L917.208 365.432L918.741 362.755L920.273 365.821L920.468 365.432L922.001 362.755L923.533 365.821L923.727 365.432L925.26 362.755L926.599 365.432L926.793 365.821L926.987 365.432L928.52 362.755L930.053 365.821L930.247 365.432L931.78 362.755L933.312 365.821L933.507 365.432L935.039 362.755L936.184 365.432L936.572 365.821L936.766 365.432L938.105 362.755C938.493 362.173 926.426 330.957 925.649 325.603H924.505ZM927.57 343.586L925.649 340.52L925.26 339.57L922.756 343.586L923.512 344.147L925.239 341.276L926.771 344.147L927.549 343.586H927.57ZM920.295 360.079L918.568 356.625L918.007 355.869L915.503 360.079L916.258 360.467L917.985 357.402L919.518 360.467L920.295 360.079ZM927.57 360.079L925.649 356.625L925.26 355.869L922.756 360.079L923.512 360.467L925.239 357.402L926.771 360.467L927.549 360.079H927.57ZM934.845 360.079L932.924 356.625L932.341 355.869L929.837 360.079L930.787 360.467L932.319 357.402L934.046 360.467L934.802 360.079H934.845ZM923.339 352.199L921.418 348.745L920.835 347.99L918.547 352.199L919.302 352.588L920.835 349.522L922.562 352.588L923.339 352.199ZM931.78 352.199L929.858 348.745L929.47 347.99L926.987 352.199L927.57 352.588L929.47 349.522L931.002 352.588L931.78 352.199ZM907.256 353.559V352.221H908.4V353.559L907.818 352.998L907.235 353.559H907.256ZM941.926 353.559V352.221H943.07V353.559L942.509 352.998L941.926 353.559ZM914.531 370.03H909.156V379.615H914.531V370.03ZM941.149 370.03H935.795V379.615H941.149V370.03ZM934.456 370.03H929.103V379.615H934.456V370.03ZM927.937 370.03H922.583V379.615H927.937V370.03ZM921.245 370.03H915.891V379.615H921.245V370.03ZM951.316 583.962H954.382V540.291H951.316V583.962ZM895.966 583.962H899.031V540.291H895.966V583.962ZM901.514 583.962H904.579V540.291H901.514V583.962ZM907.062 583.962H910.127V540.291H907.062V583.962ZM912.632 583.962H915.697V540.291H912.632V583.962ZM918.179 583.962H921.245V540.291H918.179V583.962ZM923.533 583.962H926.793V540.291H923.533V583.962ZM929.081 583.962H932.147V540.291H929.081V583.962ZM934.651 583.962H937.716V540.291H934.651V583.962ZM940.199 583.962H943.264V540.291H940.199V583.962ZM945.768 583.962H948.834V540.291H945.768V583.962ZM951.316 537.981H954.382V497.764H951.316V537.981ZM895.966 537.981H899.031V497.764H895.966V537.981ZM901.514 537.981H904.579V497.764H901.514V537.981ZM907.062 537.981H910.127V497.764H907.062V537.981ZM912.632 537.981H915.697V497.764H912.632V537.981ZM918.179 537.981H921.245V497.764H918.179V537.981ZM923.533 537.981H926.793V497.764H923.533V537.981ZM929.081 537.981H932.147V497.764H929.081V537.981ZM934.651 537.981H937.716V497.764H934.651V537.981ZM940.199 537.981H943.264V497.764H940.199V537.981ZM945.768 537.981H948.834V497.764H945.768V537.981ZM956.67 496.058H893.656V585.689H956.67V496.058ZM901.708 486.473H898.082V490.122H901.708V486.473ZM952.072 486.473H948.445V490.122H952.072V486.473ZM947.474 486.473H943.825V490.122H947.474V486.473ZM942.876 486.473H939.249V490.122H942.876V486.473ZM938.278 486.473H934.651V490.122H938.278V486.473ZM933.701 486.473H930.053V490.122H933.701V486.473ZM929.081 486.473H925.455V490.122H929.081V486.473ZM924.505 486.473H920.856V490.122H924.505V486.473ZM919.907 486.473H916.258V490.122H919.907V486.473ZM915.308 486.473H911.854V490.122H915.308V486.473ZM910.905 486.473H907.256V490.122H910.905V486.473ZM906.306 486.473H902.658V490.122H906.306V486.473ZM925.26 459.662C924.872 459.662 924.505 459.467 924.116 459.467L922.778 460.806C922.583 461.561 922.583 462.144 922.195 462.533C922.001 462.727 921.634 462.727 921.245 462.533C920.986 462.159 920.669 461.777 920.295 461.389C919.907 461.194 919.907 460.827 920.295 460.439C920.684 460.05 921.245 459.856 921.828 459.856L923.361 458.518C922.972 458.323 922.972 457.74 922.972 457.373V456.791L909.178 442.046V441.658H909.566C909.566 441.463 909.76 441.463 909.76 441.658L924.31 455.258C924.505 455.064 924.893 455.064 925.282 455.064C925.67 455.064 926.232 455.258 926.62 455.452L928.908 453.358C928.714 453.358 928.52 453.164 928.52 452.97C928.131 452.775 928.131 452.192 928.52 452.02C928.908 451.631 929.858 451.437 930.808 451.437L931.197 451.048V450.077H932.535V451.221H931.78L931.197 451.804C931.197 452.754 931.197 453.725 930.808 454.114C930.42 454.308 929.858 454.308 929.664 454.114L929.47 453.919L927.182 456.208C927.376 456.596 927.57 456.963 927.57 457.352C927.57 457.74 927.376 457.935 927.376 458.107C927.937 459.057 929.103 459.834 930.247 460.223C930.247 460.223 930.441 460.223 930.441 460.417C930.441 460.612 930.441 460.806 930.247 460.806C929.858 460.806 929.858 461 929.858 461.194C929.664 461.194 929.664 461.389 929.664 461.583C929.664 461.777 929.47 461.972 929.47 461.972C929.081 461.972 928.887 461.972 928.887 462.166C928.693 462.166 928.498 462.36 928.498 462.554H928.304C928.11 462.749 928.11 462.554 927.915 462.554C927.548 461.216 926.771 460.46 925.627 459.683H925.239L925.26 459.662ZM924.699 437.448H923.361L923.166 434.966H922.972H924.699V437.448ZM922.195 437.642C921.634 437.837 921.051 437.837 920.468 438.031L919.907 435.548C920.468 435.354 921.245 435.16 922.001 435.16L922.195 437.642ZM919.518 438.204C919.129 438.398 918.762 438.592 918.179 438.592L917.208 436.304C917.791 436.11 918.352 435.915 918.935 435.743L919.496 438.225L919.518 438.204ZM917.424 438.981C916.841 439.369 916.258 439.564 915.697 439.736L914.359 437.621C914.941 437.232 915.697 436.865 916.453 436.671L917.424 438.981ZM914.726 440.319C914.337 440.686 913.97 440.881 913.581 441.075L912.049 438.959C912.632 438.765 912.999 438.376 913.581 437.988L914.726 440.298V440.319ZM912.826 441.658C912.437 442.046 912.243 442.241 911.854 442.435L912.243 442.823C912.437 442.629 912.826 442.262 912.999 442.068H913.193L913.387 441.874C913.948 441.507 914.337 441.118 914.92 440.729H915.114L919.129 447.81C918.741 448.004 918.374 448.199 918.179 448.393L918.568 448.782C920.295 447.249 922.583 446.493 925.282 446.493C927.98 446.493 930.635 447.637 932.557 449.364H933.334C932.751 448.803 932.19 448.22 931.413 447.832L935.255 440.751H935.449C936.227 441.334 936.788 441.701 937.565 442.284L937.759 442.478C938.148 442.867 938.515 443.234 939.098 443.622C939.486 444.205 940.048 444.766 940.631 445.349V445.543L940.825 445.738C941.213 446.321 941.58 446.709 941.775 447.27L934.888 451.286C934.5 450.724 933.938 449.947 933.55 449.364V450.314C935.083 452.041 936.227 454.718 936.227 457.395C936.227 460.46 934.888 463.137 932.967 465.253C930.851 467.174 928.175 468.513 925.303 468.513C922.238 468.513 919.561 467.174 917.446 465.253C915.33 463.137 914.186 460.482 914.186 457.395C914.186 454.912 914.941 452.603 916.474 450.876L916.085 450.487C915.891 450.681 915.697 451.07 915.524 451.243L908.616 447.227C909.005 446.472 909.566 445.695 910.149 445.112V444.917C910.343 444.917 910.343 444.723 910.538 444.55L910.149 444.162C909.955 444.356 909.955 444.55 909.76 444.745L907.645 443.018C908.033 442.823 908.228 442.629 908.422 442.262V441.312L909.005 441.118C909.199 440.729 909.588 440.729 909.976 440.729C910.365 440.362 910.732 440.168 911.315 439.78L912.847 441.701L912.826 441.658ZM909.544 445.112H909.35L907.623 443.579L909.544 444.917V445.112ZM909.178 445.479C908.789 445.867 908.422 446.45 908.228 447.011L907.084 446.256L905.939 445.673C906.328 445.112 906.695 444.335 907.084 443.946H907.278L909.199 445.479H909.178ZM907.645 447.789C907.451 448.177 907.256 448.544 907.084 449.127L904.601 447.983C904.795 447.594 905.184 447.033 905.357 446.644L907.645 447.789ZM906.501 450.077C906.306 450.66 906.112 451.221 905.939 451.804L903.651 451.048H903.457C903.651 450.271 904.04 449.71 904.212 448.954L906.501 450.098V450.077ZM905.724 452.754C905.529 453.142 905.529 453.531 905.335 454.092L902.852 453.704C903.047 453.142 903.047 452.559 903.241 451.977V452.171L905.724 452.754ZM905.335 454.502L903.047 454.308V454.114L905.335 454.502ZM905.335 455.064C905.141 455.625 905.141 456.208 905.141 456.791H902.658C902.658 456.035 902.658 455.452 902.852 454.697L905.335 455.085V455.064ZM905.162 457.935C905.162 458.323 905.162 458.885 905.357 459.273L902.68 459.467V457.935H905.162ZM905.335 460.223C905.529 460.806 905.529 461.561 905.724 462.144L903.241 462.727C903.047 461.972 902.852 461.389 902.852 460.633L905.335 460.245V460.223ZM905.918 463.094C906.112 463.483 906.306 463.871 906.479 464.238L903.997 465.188V465.382C903.802 464.799 903.608 464.238 903.414 463.655H903.608L905.896 463.073L905.918 463.094ZM906.695 464.821L904.579 465.771V465.577L906.695 464.821ZM906.868 465.21C907.062 465.793 907.256 466.354 907.623 466.937L905.335 468.275C904.946 467.692 904.752 466.937 904.385 466.354L904.579 466.16L906.868 465.21ZM908.206 467.908C908.4 468.297 908.595 468.664 908.962 468.858L906.673 470.391C906.479 470.002 906.091 469.613 905.918 469.052L908.206 467.908ZM909.544 469.614C909.933 470.196 910.322 470.585 910.71 471.146L908.983 473.068H908.789C908.4 472.506 907.839 471.923 907.45 471.341L909.566 469.614H909.544ZM911.487 471.923C911.854 472.118 912.049 472.506 912.437 472.679L910.905 474.795H910.71C910.322 474.406 909.955 474.017 909.544 473.65L911.466 471.923H911.487ZM913.193 473.456C913.776 473.845 914.143 474.039 914.726 474.406L913.581 476.716H913.387C912.804 476.327 912.243 475.96 911.66 475.377L913.193 473.456ZM915.675 474.989C916.064 475.183 916.431 475.377 916.82 475.572L915.87 477.86C915.287 477.666 914.725 477.471 914.337 477.104L915.675 474.989ZM917.791 475.939C918.374 476.133 918.935 476.327 919.518 476.522L918.957 479.004C918.18 478.81 917.424 478.616 916.841 478.421L917.813 475.939H917.791ZM919.907 476.716L919.518 478.81H919.324L919.907 476.716ZM920.468 476.91C920.856 476.91 921.418 477.104 921.806 477.104L921.418 479.587C920.835 479.587 920.273 479.393 919.885 479.393L920.446 476.91H920.468ZM922.195 477.277H922.389L922.001 479.371L922.195 477.277ZM922.778 477.277C923.361 477.277 924.116 477.471 924.699 477.471V479.954C923.922 479.954 923.166 479.954 922.389 479.76L922.778 477.277ZM925.649 477.471C926.037 477.471 926.599 477.471 926.987 477.277L927.376 479.76V479.954H925.649V477.471ZM928.131 477.277C928.714 477.083 929.275 477.083 929.858 476.889L930.441 479.371C929.858 479.565 929.103 479.565 928.326 479.76L928.131 477.277ZM930.441 476.716L931.002 478.81H930.808L930.42 476.716H930.441ZM930.808 476.522C931.197 476.522 931.585 476.327 932.147 476.133L933.096 478.443V478.637C932.514 478.831 932.147 479.026 931.564 479.026L930.787 476.543L930.808 476.522ZM932.535 475.939H932.73L933.485 478.054L932.535 475.939ZM933.118 475.744C933.701 475.55 934.262 475.161 934.651 474.989L935.989 477.104V477.299C935.406 477.493 934.651 477.882 934.068 478.249V478.054L933.118 475.766V475.744ZM935.601 474.406C935.989 474.212 936.378 474.017 936.745 473.65L938.278 475.766C937.889 476.133 937.328 476.327 936.939 476.716L935.601 474.406ZM937.522 473.068C938.105 472.679 938.472 472.312 938.86 471.923L940.782 473.65C940.199 474.212 939.637 474.795 939.055 475.183L937.522 473.068ZM939.637 471.146C940.004 470.758 940.199 470.391 940.393 470.196L942.509 471.729C942.314 472.118 941.926 472.506 941.559 472.873L939.659 471.146H939.637ZM941.149 469.247C941.537 468.858 941.926 468.297 942.098 467.714L944.387 469.052C943.998 469.808 943.631 470.391 943.243 470.974H943.048L941.127 469.247H941.149ZM942.703 466.937C942.897 466.548 943.092 466.16 943.264 465.793L945.768 466.742C945.38 467.304 945.185 467.714 944.991 468.275H944.797L942.681 466.937H942.703ZM943.653 464.821C943.847 464.238 944.214 463.677 944.214 463.094L946.718 463.677H946.913C946.524 464.433 946.33 465.21 946.157 465.771L943.653 464.821ZM944.603 462.144C944.603 461.756 944.797 461.194 944.797 460.806L947.474 461.194C947.279 461.583 947.279 462.144 947.085 462.727L944.581 462.144H944.603ZM944.991 460.223L947.301 460.612H947.107L944.991 460.223ZM944.991 459.662C945.185 459.1 945.185 458.518 945.185 457.935H947.69C947.69 458.69 947.69 459.273 947.495 460.029L945.013 459.64L944.991 459.662ZM945.185 456.791C945.185 456.424 945.185 456.035 944.991 455.646L947.668 455.258V456.791H945.164H945.185ZM944.991 455.064V454.869L947.301 454.675V454.869L944.991 455.064ZM944.991 454.502C944.797 453.919 944.797 453.358 944.603 452.775L947.107 452.192V451.998C947.301 452.754 947.495 453.531 947.495 454.308L945.013 454.502H944.991ZM944.408 451.804C944.214 451.221 944.02 450.854 943.825 450.465L946.33 449.516C946.524 450.098 946.718 450.465 946.718 451.048L944.408 451.804ZM943.653 449.883L945.768 448.933V449.127L943.653 449.904V449.883ZM943.458 449.516C943.264 448.954 943.07 448.371 942.703 447.789L944.819 446.644H945.013C945.401 447.227 945.596 447.983 945.984 448.566L943.48 449.516H943.458ZM942.12 447.011C941.926 446.623 941.731 446.256 941.537 445.867L943.458 444.335C943.847 444.723 944.214 445.284 944.408 445.673L942.12 447.011ZM940.782 444.917C940.393 444.55 940.004 444.162 939.637 443.579L941.537 441.852C941.926 442.435 942.487 442.996 942.876 443.385V443.579L940.782 444.917ZM938.86 442.996C938.666 442.608 938.277 442.241 937.889 442.046L939.422 439.952C939.81 440.341 940.371 440.708 940.76 441.096L938.839 443.018L938.86 442.996ZM937.522 441.658L939.055 439.931L937.716 441.658H937.522ZM937.133 441.463C936.55 441.075 936.183 440.686 935.601 440.319L936.939 438.204C937.522 438.592 938.083 438.981 938.666 439.369L937.133 441.485V441.463ZM934.651 439.931C934.262 439.542 933.895 439.348 933.507 439.175L934.456 436.865C935.039 437.06 935.406 437.254 935.989 437.621L934.651 439.931ZM932.535 438.787C931.974 438.592 931.391 438.398 930.808 438.204L931.585 435.721C932.168 435.915 932.924 436.282 933.507 436.477L932.557 438.787H932.535ZM929.858 438.009C929.47 437.815 928.908 437.815 928.52 437.621L928.908 435.138C929.491 435.333 930.053 435.333 930.441 435.527L929.858 438.009ZM928.131 437.642H927.937L928.326 435.354L928.131 437.642ZM927.57 437.642C926.987 437.448 926.232 437.448 925.649 437.448V434.966H927.937L927.57 437.642ZM915.87 440.319C916.453 439.931 916.82 439.736 917.402 439.369H917.597L918.179 439.175C918.762 438.981 919.129 438.787 919.712 438.592H919.907L920.295 438.398H920.684C921.267 438.204 921.828 438.204 922.411 438.009H923.361V437.815H924.699V445.867C922.972 446.062 921.245 446.429 919.907 447.206L915.891 440.319H915.87ZM925.649 437.815C926.232 437.815 926.793 437.815 927.376 438.009H928.326C928.909 438.204 929.275 438.204 929.664 438.398H929.858L930.441 438.592H930.636C931.197 438.787 931.78 438.981 932.362 439.175V439.369H932.557C932.751 439.369 932.945 439.564 933.14 439.564L933.334 439.758C933.723 439.758 934.09 440.147 934.478 440.341L930.463 447.227C928.93 446.472 927.397 446.083 925.67 445.889V437.837L925.649 437.815ZM942.314 448.177C942.703 448.76 942.897 449.321 943.07 449.904L943.264 450.098C943.264 450.293 943.264 450.487 943.458 450.487V450.681C943.653 451.243 943.847 452.02 944.041 452.775C944.43 454.114 944.603 455.452 944.603 456.985H936.55C936.55 455.258 935.989 453.531 935.406 452.192L942.293 448.177H942.314ZM944.603 457.935C944.603 458.518 944.603 459.079 944.408 459.662C944.408 460.439 944.214 461.194 944.02 461.972C943.631 463.699 943.048 465.21 942.293 466.742L935.212 462.727C935.989 461.194 936.356 459.662 936.55 457.935H944.603ZM941.731 467.52C941.537 468.102 941.149 468.664 940.782 469.247L940.393 469.635L940.199 469.829C939.81 470.218 939.637 470.607 939.443 470.779L939.055 470.974L938.86 471.362L938.472 471.556H938.666C938.083 471.945 937.695 472.312 937.328 472.701H937.133V472.895L936.939 473.089C936.356 473.478 935.989 473.672 935.406 474.039L931.391 466.958C931.974 466.57 932.729 466.008 933.312 465.426C933.895 464.843 934.456 464.281 934.845 463.504L941.731 467.52ZM934.456 474.6C934.068 474.795 933.507 475.162 932.924 475.356V475.161L932.535 475.356L932.341 475.55L931.952 475.744C931.564 475.744 931.175 475.939 930.787 476.111H930.592C930.398 476.111 930.009 476.306 929.815 476.306H929.621C928.844 476.5 928.282 476.694 927.527 476.694H927.138C926.555 476.889 926.188 476.889 925.606 476.889V468.836C927.333 468.642 928.865 468.275 930.398 467.498L934.413 474.579L934.456 474.6ZM924.699 476.91C924.116 476.91 923.533 476.91 922.972 476.716H922.022C921.439 476.521 921.072 476.522 920.684 476.327C919.734 476.133 918.784 475.766 917.813 475.377H917.618C917.057 475.183 916.474 474.816 915.891 474.622L919.907 467.541C921.439 468.318 922.972 468.685 924.699 468.88V476.932V476.91ZM914.92 474.017C914.531 473.823 913.97 473.434 913.387 473.068H913.581L913.387 472.873L912.804 472.679V472.485H912.61C912.416 472.096 912.027 471.902 911.66 471.535H911.854L911.66 471.341L911.272 470.952L910.883 470.758C910.494 470.369 910.127 470.002 909.739 469.419L909.35 468.836L909.156 468.642C908.962 468.254 908.767 467.887 908.573 467.498H908.379L915.46 463.483C916.021 464.238 916.409 464.821 917.186 465.404C917.769 465.987 918.331 466.548 919.108 467.131L914.898 474.017H914.92ZM908.033 466.742C907.645 466.16 907.451 465.598 907.256 464.821H907.062C906.868 464.238 906.673 463.483 906.479 462.9C906.285 462.511 906.285 462.317 906.285 461.95C905.896 460.612 905.702 459.273 905.702 457.913H913.754C913.754 459.64 914.337 461.173 915.092 462.706L908.012 466.721L908.033 466.742ZM905.724 456.985C905.724 456.424 905.724 455.646 905.918 455.085V454.135C906.112 453.747 906.112 453.185 906.306 452.797C906.306 452.408 906.306 452.214 906.501 452.041V451.847C906.695 451.264 906.889 450.703 907.084 450.314L907.278 449.926V449.731C907.278 449.537 907.472 449.537 907.472 449.343C907.666 448.976 907.861 448.587 908.055 448.199L915.136 452.214C914.38 453.747 913.797 455.279 913.797 457.006H905.745L905.724 456.985ZM951.122 431.317H925.26C939.443 431.317 951.122 442.996 951.122 457.373V431.317ZM930.808 435.721H931.002L930.441 438.009L930.83 435.721H930.808ZM940.782 441.658H940.976L939.443 443.385L939.249 443.19L940.782 441.658ZM940.976 473.068L940.782 473.262L939.249 471.535H939.443L940.976 473.068ZM909.544 473.262L909.35 473.068L910.883 471.535H911.077L909.544 473.262ZM919.324 435.721H919.518L919.907 438.009L919.324 435.721ZM943.07 443.946L941.149 445.479V445.284L943.07 443.946ZM916.453 478.054L916.258 477.86L917.208 475.766L916.453 478.054ZM911.293 474.989V474.795L912.826 473.068L911.293 474.989ZM911.854 439.542V439.348L913.193 441.269V441.463L911.854 439.542ZM916.841 436.671L917.813 438.787L917.618 438.981L916.841 436.671ZM925.26 431.317H899.204V457.373C899.204 443.018 910.883 431.317 925.26 431.317ZM899.226 457.352V483.408H925.282C910.926 483.408 899.226 471.729 899.226 457.352ZM925.26 483.408H951.122V457.352C951.122 471.707 939.443 483.408 925.26 483.408ZM925.26 482.07C911.66 482.07 900.543 470.952 900.543 457.352C900.543 443.752 911.66 432.85 925.26 432.85C938.86 432.85 949.784 443.946 949.784 457.352C949.784 470.758 938.688 482.07 925.26 482.07ZM947.107 480.537C945.963 480.537 945.185 479.781 945.185 478.443C945.185 477.493 945.963 476.716 947.107 476.716C948.057 476.716 949.028 477.471 949.028 478.443C949.028 479.781 948.078 480.537 947.107 480.537ZM947.107 437.642C945.963 437.642 945.185 436.693 945.185 435.721C945.185 434.577 945.963 433.8 947.107 433.8C948.057 433.8 949.028 434.555 949.028 435.721C949.028 436.671 948.078 437.642 947.107 437.642ZM903.63 437.642C902.485 437.642 901.708 436.693 901.708 435.721C901.708 434.577 902.485 433.8 903.63 433.8C904.774 433.8 905.551 434.555 905.551 435.721C905.551 436.671 904.795 437.642 903.63 437.642ZM903.63 480.537C902.485 480.537 901.708 479.781 901.708 478.443C901.708 477.493 902.485 476.716 903.63 476.716C904.774 476.716 905.551 477.471 905.551 478.443C905.551 479.781 904.795 480.537 903.63 480.537ZM951.878 430.54V484.163H898.449V430.54H951.878ZM952.072 424.798H948.445V428.619H952.072V424.798ZM901.708 424.798H898.082V428.619H901.708V424.798ZM906.306 424.798H902.658V428.619H906.306V424.798ZM910.905 424.798H907.256V428.619H910.905V424.798ZM915.308 424.798H911.854V428.619H915.308V424.798ZM919.907 424.798H916.258V428.619H919.907V424.798ZM924.505 424.798H920.856V428.619H924.505V424.798ZM929.081 424.798H925.455V428.619H929.081V424.798ZM933.701 424.798H930.053V428.619H933.701V424.798ZM938.278 424.798H934.651V428.619H938.278V424.798ZM942.876 424.798H939.249V428.619H942.876V424.798ZM947.474 424.798H943.825V428.619H947.474V424.798ZM895.966 489.733H896.743V424.798H895.966V489.733ZM892.123 489.733H893.073V424.798H892.123V489.733ZM894.045 489.733H894.995V424.798H894.045V489.733ZM953.605 489.733H954.749V424.798H953.605V489.733ZM957.447 489.733H958.397V424.798H957.447V489.733ZM955.526 489.733H956.476V424.798H955.526V489.733Z" fill="white"/>
<path fill-rule="evenodd" clip-rule="evenodd" d="M1665.32 483.99V481.313L1657.47 477.492V490.703L1665.32 483.99ZM1492.39 412.729H1549.66V429.395H1492.39V412.729ZM1549.64 432.072V457.545H1492.37V432.072H1549.64ZM1549.64 461.582V507.347H1492.37V461.582H1549.64ZM1506.94 417.91H1516.69V420.004H1506.94V417.91ZM1540.46 440.318V451.997H1531.27V440.318C1531.27 438.203 1533.58 436.476 1535.86 436.476C1538.54 436.476 1540.46 438.203 1540.46 440.318ZM1525.89 440.318V451.997H1516.69V440.318C1516.69 438.203 1518.62 436.476 1521.29 436.476C1523.78 436.476 1525.89 438.203 1525.89 440.318ZM1511.15 440.318V451.997H1501.95V440.318C1501.95 438.203 1503.87 436.476 1506.55 436.476C1509.03 436.476 1511.15 438.203 1511.15 440.318ZM1525.52 474.405H1535.28V476.326H1525.52V474.405ZM1513.43 474.793H1523.19V476.715H1513.43V474.793ZM1520.34 477.276H1530.1V479.37H1520.34V477.276ZM1526.09 480.924H1535.84V483.04H1526.09V480.924ZM1514.6 480.924H1524.36V483.04H1514.6V480.924ZM1507.13 500.461H1516.69V502.555H1507.13V500.461ZM1502.34 497.957H1512.12V500.072H1502.34V497.957ZM1497.55 495.28H1507.3V497.201H1497.55V495.28ZM1534.7 494.697H1544.46V496.813H1534.7V494.697ZM1529.15 415.601H1538.91V417.716H1529.15V415.601ZM1513.82 422.703H1523.58V424.818H1513.82V422.703ZM1417.48 561.748H1514.41V637.585H1417.48V561.748ZM1514.41 640.845V722.035H1417.48V640.845H1514.41ZM1488.74 700.793H1505.21V704.247H1488.74V700.793ZM1473.22 666.124H1489.69V669.578H1473.22V666.124ZM1453.12 666.901H1469.59V670.355H1453.12V666.901ZM1464.6 671.304H1481.08V674.737H1464.6V671.304ZM1474.19 677.435H1490.66V680.889H1474.19V677.435ZM1454.85 677.435H1471.12V680.889H1454.85V677.435ZM1441.81 710.551H1458.28V714.005H1441.81V710.551ZM1433.97 706.147H1450.44V709.601H1433.97V706.147ZM1426.11 701.549H1442.58V705.197H1426.11V701.549ZM1448.72 608.658V628.389H1433.19V608.658C1433.19 605.009 1436.65 601.944 1441.05 601.944C1445.46 601.944 1448.72 605.009 1448.72 608.658ZM1498.89 608.658V628.389H1483.36V608.658C1483.36 605.009 1486.62 601.944 1491.03 601.944C1495.43 601.944 1498.89 605.009 1498.89 608.658ZM1473.8 608.658V628.389H1458.28V608.658C1458.28 605.009 1461.73 601.944 1465.94 601.944C1470.15 601.944 1473.8 605.009 1473.8 608.658ZM1441.61 570.75H1458.08V574.182H1441.61V570.75ZM1479.54 566.713H1496.01V570.167H1479.54V566.713ZM1453.29 578.586H1469.76V582.234H1453.29V578.586ZM1417.48 587.782H1514.41V591.236H1417.48V587.782ZM1521.29 373.289L1502.14 389.372H1541.61L1521.31 373.289H1521.29ZM1537.76 389.955V411.413H1506.16V389.955H1537.76ZM1518.42 398.179H1524.92V391.854H1518.42V398.179ZM1685.81 467.518L1658.81 490.315H1714.74L1685.81 467.518ZM1708.61 491.848V522.308H1725.66V654.661H1645.4V522.308H1664.74V491.848H1708.61ZM1681.8 502.166H1690.8V493.164H1681.8V502.166ZM1665.52 529.755H1679.12V532.432H1665.52V529.755ZM1712.82 561.165V577.248H1699.97V561.165C1699.97 558.1 1702.65 555.595 1706.3 555.595C1709.75 555.595 1712.82 558.078 1712.82 561.165ZM1692.14 561.165V577.248H1679.29V561.165C1679.29 558.1 1682.16 555.595 1685.62 555.595C1689.07 555.595 1692.14 558.078 1692.14 561.165ZM1671.46 561.165V577.248H1658.61V561.165C1658.61 558.1 1661.48 555.595 1664.94 555.595C1668.58 555.595 1671.46 558.078 1671.46 561.165ZM1691.58 608.485H1705.18V611.356H1691.58V608.485ZM1674.91 609.046H1688.51V611.917H1674.91V609.046ZM1684.47 612.694H1698.27V615.76H1684.47V612.694ZM1692.52 617.854H1706.13V620.725H1692.52V617.854ZM1676.25 617.854H1690.04V620.725H1676.25V617.854ZM1665.71 645.248H1679.31V648.12H1665.71V645.248ZM1659.19 641.6H1672.79V644.471H1659.19V641.6ZM1652.67 637.973H1666.27V640.845H1652.67V637.973ZM1704.59 637.196H1718.19V639.873H1704.59V637.196ZM1696.73 526.496H1710.33V529.172H1696.73V526.496ZM1675.28 536.275H1688.88V539.146H1675.28V536.275ZM1645.4 543.744H1725.66V547.565H1645.4V543.744ZM1645.4 585.106H1725.66V593.158H1645.4V585.106ZM1466.14 495.474L1433.39 522.869H1501.19L1466.14 495.474ZM1493.9 524.402V559.071H1440.66V524.402H1493.9ZM1461.34 537.419H1472.27V526.496H1461.34V537.419ZM1516.89 615.177L1519.57 613.839V634.325L1523.97 632.404V611.917L1533.17 607.513V628L1537.38 625.906V605.419L1546.57 601.016V621.502L1550.98 619.387V598.9L1560.17 594.496V614.983L1564.38 612.889V592.402L1573.58 587.998V608.485L1577.98 606.564V585.883L1587.18 581.479V601.965L1591.39 600.044V579.558L1600.58 574.959V595.446L1604.99 593.525V573.038L1613.99 568.634V589.121L1618.39 587.005V566.519L1627.59 562.115V582.601L1631.8 580.486V559.999L1641 555.595V576.104L1642.92 575.348V644.298L1516.89 704.83V615.199V615.177ZM1657.47 490.682V494.891L1653.84 493.164V475.549L1645.79 471.706V489.516L1642.16 487.595V469.979L1634.3 466.137V483.947L1630.46 482.025V464.41L1622.8 460.589V478.399L1618.98 476.477V458.862L1611.12 455.235V472.656L1607.49 470.929V453.314L1599.44 449.471V467.087L1595.79 465.36V447.744L1587.93 443.902V461.517L1584.31 459.79V442.175L1576.25 438.332V455.948L1572.61 454.221V436.605L1564.75 432.784V450.4L1560.93 448.673V431.057L1553.26 427.236V444.852L1552.31 444.485V503.85L1642.92 547.327V519.76H1663.21V490.639H1657.47V490.682Z" fill="white"/>
<path fill-rule="evenodd" clip-rule="evenodd" d="M619.776 408.905L616.71 437.638L515.012 426.542L518.077 397.809L619.776 408.927V408.905ZM538.758 671.107C591.82 671.107 637.586 692.176 656.172 722.053H420.977C439.93 692.176 485.523 671.107 538.758 671.107ZM493.554 593.543L601.578 605.416L601.016 611.935L492.798 600.062L493.575 593.543H493.554ZM535.304 352.389L613.062 360.808L613.645 355.066L535.887 346.625L535.304 352.367V352.389ZM515.962 388.03L624.18 399.709L623.403 406.422L515.379 394.549L515.962 388.03ZM511.558 429.003L619.582 440.876L618.999 447.59L510.781 435.717L511.558 429.003ZM507.154 470.192L615.178 482.065L614.422 488.584L506.398 476.906L507.154 470.192ZM502.556 511.187L610.774 523.06L609.824 529.773L501.8 517.9L502.577 511.187H502.556ZM498.152 552.354L606.176 564.227L605.399 570.941L497.375 559.068L498.13 552.375L498.152 552.354ZM602.916 395.499L606.564 362.557L541.262 355.476L537.614 388.418L602.916 395.499ZM558.489 371.753L557.345 383.432L546.055 382.288L547.199 370.609C547.587 367.349 550.458 364.866 553.524 365.233C556.589 365.622 558.899 368.493 558.511 371.753H558.489ZM597.368 376.157L596.03 387.836L584.739 386.497L586.078 374.818C586.466 371.559 589.338 369.27 592.403 369.637C595.468 369.832 597.778 372.703 597.39 376.157H597.368ZM578.026 374.041L576.687 385.72L565.397 384.382L566.735 372.703C566.93 369.443 569.801 366.96 573.061 367.543C576.126 367.738 578.241 370.609 578.047 374.041H578.026ZM528.612 404.695L526.518 423.649L519.804 422.894L521.92 403.94C522.114 402.407 523.647 401.263 525.568 401.436C527.489 401.63 528.828 402.968 528.633 404.695H528.612ZM594.303 579.943L591.993 598.918L585.473 598.141L587.589 579.187C587.783 577.654 589.316 576.51 591.237 576.705C592.964 577.093 594.303 578.432 594.303 579.964V579.943ZM584.912 578.777L582.796 597.947L576.104 597.17L578.22 578.216C578.414 576.683 579.947 575.539 581.868 575.733C583.79 575.927 585.128 577.46 584.934 578.799L584.912 578.777ZM575.543 578.021L573.428 596.803L566.908 596.22L568.829 577.072C569.024 575.539 570.751 574.567 572.65 574.783C574.377 574.978 575.716 576.316 575.521 578.043L575.543 578.021ZM566.347 576.877L564.231 595.831L557.539 595.076L559.655 576.122C559.849 574.589 561.382 573.618 563.281 573.618C565.203 574.006 566.541 575.345 566.347 576.877ZM556.956 575.712L554.841 594.86L548.321 594.104L550.243 575.15C550.437 573.618 552.164 572.473 553.891 572.646C555.812 572.84 557.151 574.373 556.956 575.712ZM547.76 574.956L545.644 593.716L538.931 593.133L540.852 573.985C541.046 572.452 542.773 571.502 544.673 571.696C546.594 571.891 547.933 573.229 547.738 574.956H547.76ZM538.369 573.812L536.275 592.766L529.562 592.01L531.677 573.229C531.872 571.502 533.599 570.552 535.304 570.552C537.225 570.941 538.564 572.279 538.369 573.812ZM529 572.84L527.079 591.794L520.193 591.039L522.308 572.063C522.503 570.531 524.23 569.386 526.129 569.581C527.856 569.775 529.195 571.308 529 572.84ZM519.804 571.891L517.689 590.844L510.975 590.089L513.09 571.113C513.285 569.581 515.012 568.437 516.739 568.631C518.466 568.825 519.998 570.164 519.804 571.891ZM510.414 570.746L508.492 589.7L501.606 588.923L503.721 570.164C503.916 568.437 505.448 567.487 507.37 567.487C509.291 567.875 510.629 569.214 510.435 570.746H510.414ZM598.706 538.365L596.785 557.319L589.899 556.563L592.014 537.588C592.209 536.055 593.741 535.105 595.663 535.105C597.584 535.494 598.922 536.832 598.728 538.365H598.706ZM589.51 537.415L587.222 556.369L580.702 555.614L582.818 536.638C583.012 535.105 584.545 533.961 586.466 534.156C588.193 534.35 589.532 535.883 589.532 537.415H589.51ZM580.141 536.444L578.026 555.419L571.312 554.664L573.428 535.516C573.622 534.177 575.155 533.033 577.076 533.227C578.997 533.422 580.335 534.76 580.141 536.465V536.444ZM570.945 535.321L568.657 554.275L562.137 553.714L564.059 534.738C564.447 533.011 565.98 532.062 567.88 532.062C569.607 532.45 570.945 533.789 570.945 535.321ZM561.554 534.35L559.439 553.325L552.747 552.548L554.862 533.594C555.057 532.062 556.589 530.917 558.511 531.09C560.432 531.284 561.77 532.817 561.576 534.35H561.554ZM552.164 533.4L550.048 552.354L543.529 551.577L545.45 532.429C545.644 531.09 547.371 529.924 549.098 530.119C551.02 530.313 552.358 531.651 552.164 533.378V533.4ZM542.968 532.256L540.852 551.21L534.138 550.627L536.254 531.673C536.254 529.946 537.981 528.996 539.902 528.996C541.823 529.385 543.162 530.723 542.968 532.256ZM533.599 531.284L531.483 550.26L524.964 549.483L526.885 530.529C527.079 528.996 528.806 527.852 530.512 528.241C532.433 528.241 533.771 529.773 533.577 531.306L533.599 531.284ZM524.208 530.335L522.287 549.31L515.4 548.533L517.516 529.385C517.71 528.046 519.437 526.902 521.337 527.097C523.064 527.291 524.597 528.629 524.208 530.356V530.335ZM515.012 529.169L512.896 548.144L506.182 547.561L508.298 528.608C508.492 526.881 510.219 525.931 511.946 525.931C513.673 526.319 515.206 527.658 515.012 529.19V529.169ZM603.305 496.809L601.189 515.763L594.497 515.18L596.612 496.032C596.807 494.499 598.339 493.528 600.261 493.722C601.988 493.917 603.521 495.255 603.326 496.788L603.305 496.809ZM593.914 495.859L591.993 514.835L585.106 514.058L587.222 495.104C587.416 493.571 589.143 492.427 590.87 492.621C592.791 492.816 594.13 494.348 593.936 495.881L593.914 495.859ZM584.739 494.888L582.624 513.842L575.91 513.086L578.026 494.132C578.22 492.6 579.753 491.456 581.652 491.65C583.379 491.844 584.718 493.183 584.718 494.91L584.739 494.888ZM575.349 493.744L573.233 512.719L566.519 512.136L568.635 493.183C568.829 491.456 570.362 490.506 572.262 490.7C574.183 490.894 575.522 492.233 575.327 493.765L575.349 493.744ZM566.153 492.794L563.843 511.748L557.323 510.992L559.245 492.038C559.633 490.506 561.166 489.362 563.065 489.556C564.792 489.75 566.131 491.283 566.131 492.816L566.153 492.794ZM556.762 491.844L554.646 510.798L547.954 510.021L550.07 491.067C550.264 489.534 551.797 488.369 553.718 488.563C555.639 488.757 556.978 490.29 556.784 491.823L556.762 491.844ZM547.393 490.873L545.277 509.632L538.758 509.071L540.679 490.117C540.874 488.39 542.601 487.44 544.5 487.613C546.227 487.807 547.566 489.146 547.371 490.873H547.393ZM538.197 489.729L536.081 508.682L529.389 507.927L531.505 488.973C531.505 487.44 533.232 486.275 535.153 486.663C537.074 486.857 538.413 488.196 538.218 489.729H538.197ZM528.806 488.757L526.691 507.711L520.171 506.955L522.092 487.98C522.287 486.447 524.014 485.303 525.741 485.497C527.662 485.692 529 487.224 528.806 488.757ZM519.61 487.807L517.494 506.588L510.608 506.027L512.723 487.052C512.918 485.325 514.645 484.375 516.544 484.569C518.466 484.763 519.804 486.102 519.61 487.807ZM607.708 455.448L605.787 474.207L599.073 473.646L601.189 454.498C601.189 452.965 602.916 451.994 604.643 452.188C606.564 452.382 608.097 453.721 607.708 455.448ZM598.512 454.303L596.397 473.257L589.683 472.502L591.798 453.742C591.993 452.015 593.525 451.065 595.447 451.065C597.174 451.454 598.706 452.792 598.512 454.325V454.303ZM589.122 453.138L587.2 472.286L580.314 471.53L582.624 452.555C582.624 451.022 584.351 449.878 586.056 450.267C587.978 450.267 589.316 451.799 589.122 453.138ZM579.947 452.382L577.831 471.358L571.139 470.602L573.255 451.432C573.449 450.094 574.982 448.95 576.903 449.144C578.63 449.338 579.969 450.677 579.969 452.404L579.947 452.382ZM570.556 451.216L568.441 470.192L561.727 469.436L563.821 450.655C564.015 448.928 565.548 447.978 567.469 447.978C569.391 448.367 570.729 449.705 570.535 451.238L570.556 451.216ZM561.36 450.267L559.05 469.242L552.531 468.486L554.452 449.511C554.841 447.978 556.373 446.834 558.273 447.223C560 447.223 561.339 448.755 561.339 450.288L561.36 450.267ZM551.97 449.317L549.854 468.292L543.14 467.515L545.256 448.561C545.45 447.028 546.983 445.884 548.904 446.079C550.825 446.273 552.164 447.611 551.97 449.338V449.317ZM542.601 448.173L540.485 467.126L533.966 466.349L535.887 447.59C536.275 445.863 537.808 444.891 539.729 444.891C541.456 445.28 542.795 446.618 542.601 448.151V448.173ZM533.404 447.201L531.289 466.155L524.575 465.399L526.691 446.446C526.885 444.913 528.418 443.769 530.339 444.136C532.26 444.136 533.599 445.668 533.404 447.201ZM524.014 446.251L521.898 465.205L515.379 464.45L517.3 445.496C517.494 443.963 519.221 442.819 520.948 443.013C522.87 443.207 524.208 444.546 524.014 446.273V446.251ZM612.307 413.87L610.191 432.845L603.499 432.068L605.614 412.92C605.809 411.582 607.536 410.438 609.435 410.632C611.162 410.826 612.501 412.165 612.307 413.892V413.87ZM602.916 412.726L600.995 431.701L594.281 431.118L596.397 412.165C596.397 410.438 598.124 409.466 599.851 409.466C601.772 409.855 603.305 411.193 602.916 412.726ZM593.741 411.776L591.626 430.73L584.912 429.974L587.028 411.021C587.222 409.488 588.755 408.344 590.676 408.711C592.597 408.711 593.936 410.243 593.741 411.776ZM584.351 410.826L582.429 429.78L575.543 429.024L577.831 410.049C577.831 408.516 579.558 407.372 581.285 407.567C583.207 407.761 584.739 409.099 584.351 410.826ZM575.154 409.66L573.039 428.614L566.347 428.053L568.462 409.078C568.657 407.351 570.189 406.401 572.111 406.401C573.838 406.789 575.176 408.128 575.176 409.66H575.154ZM565.764 408.711L563.648 427.664L556.935 426.909L559.05 407.933C559.245 406.401 560.777 405.257 562.699 405.645C564.62 405.645 565.958 407.178 565.764 408.711ZM556.568 407.761L554.452 426.715L547.738 425.959L549.854 406.984C550.048 405.451 551.581 404.307 553.502 404.501C555.229 404.695 556.568 406.034 556.568 407.761ZM547.199 406.595L545.083 425.549L538.369 424.988L540.485 406.012C540.679 404.285 542.212 403.335 544.133 403.53C546.055 403.724 547.393 405.062 547.199 406.595ZM538.002 405.645L535.693 424.599L529.195 423.822L531.116 404.868C531.505 403.335 533.037 402.191 534.937 402.558C536.664 402.558 538.002 404.091 538.002 405.624V405.645ZM615.372 450.072L612.307 478.611L510.608 467.493L513.673 438.955L615.372 450.051V450.072ZM610.968 491.261L607.708 519.8L506.01 508.682L509.269 480.144L610.968 491.261ZM606.37 532.429L603.305 560.967L501.606 549.85L504.671 521.311L606.37 532.429ZM601.966 573.423L598.706 602.156L497.202 591.039L500.267 562.306L601.966 573.402V573.423ZM597.368 614.591L590.849 675.122C589.316 674.733 587.783 674.345 586.056 673.784L591.043 629.529C591.432 625.125 587.589 621.304 582.235 620.527C576.881 619.944 572.283 623.01 571.895 627.608L567.297 670.135C565.57 669.941 564.037 669.747 562.31 669.552L566.908 627.025C567.297 622.621 563.454 618.606 558.295 618.023C553.114 617.44 548.343 620.506 547.954 624.931L543.162 668.214C541.629 668.02 540.096 668.02 538.758 668.02H538.175L542.968 624.348C543.356 619.944 539.514 615.929 534.354 615.346C529 614.763 524.402 617.85 523.819 622.233L518.833 668.97C517.106 669.164 515.379 669.337 513.652 669.531L518.833 621.65C519.416 617.44 515.379 613.231 510.219 612.648C505.038 612.087 500.267 615.13 499.879 619.728L493.942 673.158C492.021 673.546 489.927 674.107 488.006 674.69L495.669 603.452L597.368 614.547V614.591Z" fill="white"/>
<path fill-rule="evenodd" clip-rule="evenodd" d="M1275.76 715.34L1202.4 716.095L1212.18 704.222L1215.83 700.013L1218.14 697.142L1221.77 692.932L1224.05 690.061L1227.51 686.046L1275.97 627.824L1324.8 685.096C1324.41 685.484 1323.83 686.046 1323.47 686.434L1354.31 657.701C1360.44 663.077 1366.58 668.43 1372.71 673.59C1376.92 666.898 1384.19 658.457 1393.39 659.428C1409.28 659.99 1411.59 684.513 1411.59 684.513L1403.14 684.707L1403.34 689.5C1406.4 692.565 1408.69 696.386 1410.05 700.596C1410.25 700.79 1410.25 700.984 1410.44 701.178L1411.02 701.934L1411.22 702.517C1411.61 703.294 1411.8 704.05 1412.36 705.021L1378.47 705.215C1389.78 705.215 1401.07 705.021 1412.36 705.021L1411.78 704.071L1411.39 703.121L1411.2 702.539C1411.59 703.316 1411.78 704.071 1412.34 705.043C1412.73 706.187 1414.07 709.447 1414.26 710.591L1432.07 711.368C1434.94 712.123 1436.48 711.951 1438.4 721.32L1383.24 721.708C1383.44 722.658 1357.18 721.32 1357.18 721.32L1301.25 720.758C1301.25 720.758 1301.25 717.304 1300.86 715.772L1275.78 715.383L1275.76 715.34ZM1328.82 693.321C1329.6 693.515 1330.35 693.904 1331.3 694.271C1330.35 693.882 1329.57 693.515 1328.82 693.321ZM1353.32 714.584C1352.74 714.002 1351.98 713.634 1351.2 713.246C1351.96 713.634 1352.74 714.002 1353.32 714.584ZM1410.4 701.178C1410.2 700.984 1410.2 700.79 1410.01 700.596L1410.4 701.178Z" fill="white"/>
<path fill-rule="evenodd" clip-rule="evenodd" d="M1381.66 584.714V590.456H1352.35V621.283H1365L1356.19 624.154V722.032H1336.85V624.349L1327.85 621.283H1340.67V590.456H1243.18V621.283H1256.03L1247.22 624.154V722.032H1227.68V624.349L1219.07 621.283H1231.7V590.456H1202.4V584.714H1194.54V580.504H1231.7V563.839H1222.89V557.319C1210.82 555.592 1198.39 553.498 1185.93 550.994V536.811C1181.33 536.056 1176.54 535.084 1171.75 533.94V522.434C1166.39 521.484 1160.85 520.318 1155.47 519.196V508.855C1247.58 524.377 1338.58 523.405 1428.4 508.855V519.196C1423.05 520.34 1417.67 521.484 1412.12 522.434V533.94C1407.53 535.084 1402.73 536.056 1397.96 537.006V550.994C1385.9 553.693 1373.44 555.981 1361.01 557.708V563.839H1352.37V580.504H1389.35V584.714H1381.69H1381.66ZM1252.01 560.601V563.86H1243.2V580.526H1283.23V562.133C1272.89 561.939 1262.54 561.378 1252.01 560.601ZM1340.69 563.839H1331.88V560.773C1321.72 561.723 1311.2 562.112 1300.86 562.306V580.504H1340.69V563.839Z" fill="white"/>
<path fill-rule="evenodd" clip-rule="evenodd" d="M1044.93 277.488C1039.57 282.475 1041.1 281.892 1028.65 278.244C1017.72 274.79 1022.91 273.646 1013.13 279.194C1004.32 284.375 989.942 289.534 983.25 293.55C985.754 299.098 1007.19 317.296 1012.37 324.765C1010.45 325.715 1008.92 326.492 1006.82 327.442C1003.56 328.975 1004.34 328.975 1000.5 326.686C992.079 321.894 965.073 306.567 959.698 304.279C952.617 307.344 933.836 316.929 927.338 316.54C924.273 316.346 919.286 315.59 920.257 311.748C922.74 302.357 939.6 297.198 950.523 292.405C954.927 290.484 953.783 290.678 954.733 285.886C955.898 280.727 963.173 243.186 964.879 241.265C965.634 240.682 971.571 238.199 972.737 237.616C973.319 241.07 973.686 244.891 973.881 248.54L975.802 269.803C975.802 273.257 976.385 277.273 976.946 280.532C981.933 278.05 986.898 275.934 992.079 273.452C1017.75 261.19 1013.15 269.436 1019.08 255.642C1022.54 247.978 1022.54 243.38 1030.01 244.524C1028.67 259.851 1032.88 269.415 1044.95 277.467L1044.93 277.488ZM561.603 268.357C559.876 269.307 557.782 267.774 557.954 265.874C557.76 264.73 558.71 263.197 560.07 263.003L561.603 261.082C563.524 258.794 567.345 261.665 565.251 264.147L564.862 264.73L565.618 264.924C568.683 266.069 566.762 270.472 563.891 269.328L561.581 268.378L561.603 268.357ZM230.256 281.18C224.881 286.167 226.435 285.584 213.979 281.763C203.056 278.503 208.237 277.165 198.458 282.907C189.65 287.894 175.273 293.247 168.581 297.263C171.063 302.811 192.521 321.009 197.702 328.478C195.781 329.428 194.248 330.011 192.154 330.961C188.894 332.688 189.672 332.688 185.829 330.378C177.41 325.585 150.404 310.064 145.029 307.97C137.948 311.035 119.167 320.62 112.669 320.232C109.604 320.037 104.617 319.088 105.588 315.245C108.071 305.854 124.931 300.695 135.854 295.903C140.258 293.981 139.114 294.37 140.064 289.577C141.208 284.224 148.504 246.877 150.21 244.956C150.793 244.373 156.902 241.696 158.067 241.308C158.65 244.762 159.039 248.388 159.212 252.037L161.133 273.495C161.133 276.754 161.716 280.964 162.277 284.029C167.264 281.72 172.229 279.431 177.41 277.143C203.077 264.881 198.285 273.128 204.416 259.333C207.87 251.67 207.676 247.072 215.339 248.216C214.001 263.543 218.21 273.106 230.278 281.158L230.256 281.18ZM224.708 262.226C221.837 263.176 222.981 267.58 226.241 266.824L230.645 265.291C233.322 264.514 232.372 259.938 229.112 260.693L224.708 262.226ZM723.638 365.263C726.121 367.379 728.798 363.536 726.509 361.636L724.588 360.104C721.911 357.988 719.234 361.831 721.523 363.752L723.638 365.285V365.263ZM710.405 354.728C712.888 356.65 715.759 353.002 713.471 351.08L709.65 348.015C707.167 346.093 704.296 349.936 706.779 351.836L710.427 354.707L710.405 354.728ZM695.488 343.244C697.777 345.165 700.842 341.517 698.359 339.423L694.538 336.552C692.056 334.825 688.99 338.473 691.667 340.394L695.488 343.266V343.244ZM680.161 332.126C682.838 334.048 685.342 329.838 682.838 328.305L678.823 325.629C676.146 323.707 673.642 327.938 676.146 329.45L680.161 332.126ZM664.445 321.592C667.122 323.319 669.626 319.303 667.122 317.576L663.107 315.094C660.43 313.367 657.753 317.209 660.43 318.936L664.445 321.613V321.592ZM648.557 311.446C651.04 312.978 653.716 309.157 650.845 307.43L646.83 304.948C644.347 303.415 641.671 307.236 644.347 308.963L648.557 311.446ZM632.086 301.861C635.151 303.393 637.073 299.184 634.568 297.651L630.359 295.363C627.488 293.83 625.372 298.04 628.07 299.572L632.086 301.882V301.861ZM615.615 292.859C618.486 294.197 620.407 289.988 617.73 288.649L613.521 286.339C610.649 285.001 608.534 289.21 611.405 290.549L615.615 292.837V292.859ZM598.56 284.44C601.432 285.778 603.547 281.568 600.654 280.036L596.445 278.114C593.768 276.776 591.458 280.791 594.329 282.324L598.539 284.44H598.56ZM581.528 276.582C584.593 277.726 586.126 273.322 583.255 272.178L578.851 270.257C575.98 269.112 574.253 273.516 577.124 274.66L581.528 276.582ZM546.276 262.787C549.535 263.737 550.485 259.139 547.808 258.383L543.21 256.851C539.95 255.901 539.001 260.499 541.677 261.255L546.276 262.787ZM528.272 257.045C531.143 257.995 532.481 253.397 529.61 252.447L525.012 251.108C521.946 250.331 520.608 254.929 523.673 255.707L528.272 257.045ZM510.073 252.08C512.75 252.835 514.477 248.432 511.217 247.482L506.619 246.338C503.165 245.582 502.604 250.353 505.475 250.936L510.073 252.08ZM491.702 247.676C494.768 248.259 495.523 243.661 492.652 243.078L487.86 242.128C484.794 241.545 483.844 246.143 486.888 246.726L491.681 247.676H491.702ZM473.115 244.222C475.987 244.805 477.131 240.207 473.871 239.43C472.338 239.235 470.611 238.847 469.079 238.674C466.207 238.091 465.063 242.689 468.323 243.467C469.856 243.661 471.583 243.855 473.115 244.244V244.222ZM454.334 241.351C457.594 241.74 457.983 236.947 454.917 236.753L450.319 236.17C447.059 235.781 446.671 240.574 449.736 240.768L454.334 241.351ZM435.575 239.43C438.64 239.624 439.223 235.026 435.963 234.637L431.171 234.249C428.3 233.86 427.523 238.653 430.977 239.041L435.575 239.43ZM416.815 238.091C420.075 238.286 419.881 233.493 417.01 233.493L412.217 233.299C408.957 233.105 408.957 237.897 412.023 237.897L416.815 238.091ZM397.84 237.703C400.905 237.703 401.1 232.91 397.84 232.91H393.047C390.176 232.91 389.788 237.703 393.047 237.703H397.84ZM378.886 238.091C382.34 237.703 381.757 233.105 378.692 233.299L374.094 233.493C370.834 233.687 371.222 238.48 374.288 238.286L378.886 238.091ZM360.105 239.041C363.17 238.847 362.782 234.054 359.716 234.249L354.924 234.637C351.858 234.832 352.247 239.624 355.312 239.43L360.105 239.041ZM341.345 240.768C344.216 240.574 344.022 235.781 340.763 236.17C339.23 236.364 337.503 236.559 335.97 236.753C333.099 236.947 333.293 241.74 336.553 241.351C338.086 241.157 339.618 240.962 341.345 240.768ZM322.564 243.251C325.824 242.668 324.68 238.091 321.809 238.653L317.016 239.235C313.951 240.012 314.901 244.611 317.772 244.028L322.564 243.251ZM303.805 246.51C306.87 245.927 306.115 241.157 303.049 241.718L298.257 242.668C295.386 243.251 296.141 247.849 299.207 247.266L303.805 246.489V246.51ZM285.412 250.159C288.283 249.77 287.528 244.978 284.268 245.56L279.67 246.705C276.41 247.482 277.943 252.058 280.814 251.303L285.412 250.159ZM267.02 254.757C270.085 253.807 268.747 249.209 265.681 250.159L261.083 251.303C258.018 252.058 259.356 256.656 262.421 255.901L267.02 254.757ZM248.649 259.743C251.714 258.988 250.57 254.196 247.31 255.145L242.906 256.484C240.035 257.239 240.985 261.837 244.245 261.082L248.649 259.743ZM1039.38 258.535C1036.51 259.484 1037.65 263.888 1040.91 263.133L1045.31 261.6C1047.99 260.823 1047.23 256.246 1043.78 257.196L1039.38 258.535ZM1538.31 361.766C1540.79 363.687 1543.66 359.845 1541.18 358.118L1539.26 356.391C1536.58 354.275 1533.9 358.312 1536.19 360.039L1538.31 361.766ZM1525.1 351.231C1527.6 353.153 1530.45 349.31 1528.16 347.41L1524.32 344.539C1521.84 342.618 1518.94 346.266 1521.45 348.188L1525.07 351.253L1525.1 351.231ZM1510.16 339.552C1512.45 341.474 1515.51 337.825 1513.03 335.904L1509.21 333.033C1506.72 331.112 1503.66 334.76 1506.34 336.854L1510.16 339.531V339.552ZM1494.83 328.629C1497.51 330.356 1500.01 326.341 1497.51 324.614L1493.69 321.937C1490.81 320.21 1488.31 324.247 1491.01 325.952L1494.83 328.629ZM1479.14 317.9C1481.81 319.627 1484.3 315.612 1481.81 313.885L1477.8 311.402C1475.12 309.675 1472.62 313.712 1475.12 315.418L1479.14 317.9ZM1463.23 307.754C1465.73 309.481 1468.41 305.639 1465.73 303.739L1461.52 301.256C1459.23 299.724 1456.36 303.545 1459.23 305.466L1463.25 307.754H1463.23ZM1446.95 298.169C1449.82 299.702 1451.74 295.492 1449.26 294.154L1445.05 291.671C1442.18 290.333 1440.06 294.543 1442.76 295.881L1446.97 298.191L1446.95 298.169ZM1430.28 289.167C1433.15 290.506 1435.27 286.49 1432.38 284.958L1428.17 282.842C1425.3 281.309 1423.38 285.713 1426.05 287.052L1430.26 289.146L1430.28 289.167ZM1413.23 280.748C1416.1 282.087 1418.22 277.877 1415.34 276.539L1411.14 274.423C1408.46 273.085 1406.17 277.294 1409.02 278.633L1413.23 280.748ZM1396.2 272.89C1399.26 274.034 1400.79 269.631 1397.92 268.486L1393.71 266.565C1390.65 265.421 1388.92 270.019 1391.79 270.969L1396.2 272.89ZM1378.58 265.81C1381.45 266.954 1383.35 262.55 1380.31 261.211L1375.9 259.679C1373.03 258.535 1371.31 262.938 1374.18 264.083L1378.58 265.81ZM1360.94 259.29C1364.2 260.24 1365.15 255.469 1362.48 254.692L1357.88 253.159C1354.62 252.209 1353.67 256.808 1356.35 257.757L1360.94 259.29ZM1342.96 253.354C1346.03 254.303 1347.17 249.705 1344.3 248.95L1339.7 247.611C1336.64 246.661 1335.3 251.26 1338.36 252.015L1342.96 253.354ZM1324.76 248.388C1327.44 249.144 1329.17 244.74 1325.91 243.79L1321.31 242.646C1317.86 241.891 1317.27 246.661 1320.17 247.244L1324.76 248.388ZM1306.37 244.157C1309.44 244.74 1310.19 239.948 1307.32 239.365L1302.53 238.415C1299.46 237.832 1298.69 242.43 1301.77 243.013L1306.37 244.157ZM1287.78 240.531C1290.66 241.113 1291.82 236.515 1288.54 235.932C1287.01 235.544 1285.47 235.35 1283.75 234.983C1281.07 234.594 1279.73 239.192 1282.99 239.775C1284.72 239.969 1286.25 240.358 1287.78 240.552V240.531ZM1269.02 237.659C1272.28 238.048 1272.67 233.45 1269.61 233.061L1265.01 232.478C1261.75 232.09 1261.36 236.882 1264.43 237.077L1269.02 237.659ZM1250.24 235.738C1253.31 236.127 1253.87 231.334 1250.63 230.946L1245.84 230.557C1242.97 230.363 1242.19 234.961 1245.65 235.35L1250.24 235.738ZM1231.48 234.594C1234.74 234.594 1234.55 229.802 1231.68 229.802L1226.89 229.607C1223.63 229.607 1223.63 234.205 1226.69 234.4L1231.48 234.594ZM1212.51 234.011C1215.57 234.011 1215.77 229.413 1212.51 229.219H1207.72C1204.85 229.219 1204.46 234.011 1207.72 234.011H1212.51ZM1193.56 234.4C1197.01 234.205 1196.43 229.413 1193.36 229.607L1188.76 229.802C1185.5 229.996 1185.89 234.788 1188.96 234.594L1193.56 234.4ZM1174.8 235.35C1177.86 235.155 1177.67 230.363 1174.41 230.751L1169.61 231.14C1166.55 231.334 1166.94 235.932 1170 235.738L1174.8 235.35ZM1156.01 237.271C1158.89 236.882 1158.69 232.09 1155.43 232.478C1153.9 232.673 1152.17 232.867 1150.64 233.061C1147.77 233.256 1147.96 238.048 1151.22 237.659C1152.75 237.465 1154.29 237.271 1156.01 237.271ZM1137.25 239.559C1140.51 238.976 1139.35 234.4 1136.5 234.961L1131.71 235.717C1128.64 236.299 1129.59 240.898 1132.46 240.315L1137.25 239.538V239.559ZM1118.47 242.819C1121.54 242.236 1120.78 237.659 1117.72 238.221L1112.95 238.976C1110.08 239.559 1110.83 244.33 1113.9 243.769L1118.5 242.819H1118.47ZM1100.1 246.661C1102.97 246.079 1102.22 241.308 1098.96 242.063L1094.36 243.013C1091.1 243.963 1092.63 248.388 1095.5 247.611L1100.1 246.661ZM1081.71 251.065C1084.78 250.115 1083.44 245.712 1080.57 246.467L1075.77 247.611C1072.71 248.561 1074.05 252.965 1077.11 252.209L1081.71 251.065ZM1063.51 256.03C1066.38 255.275 1065.24 250.677 1062.17 251.432L1057.58 252.771C1054.7 253.526 1055.65 258.319 1058.91 257.369L1063.51 256.03Z" fill="white"/>
</g>
<defs>
<clipPath id="clip0_1_1506">
<rect width="1727" height="721.843" fill="white"/>
</clipPath>
</defs>
</svg>
